<?xml version="1.0" encoding="UTF-8"?>
<svg width="199px" height="41px" viewBox="0 0 199 41" version="1.1" xmlns="http://www.w3.org/2000/svg" xmlns:xlink="http://www.w3.org/1999/xlink">
    <!-- Generator: Sketch 49.3 (51167) - http://www.bohemiancoding.com/sketch -->
    <title>cu-logo-blue</title>
    <desc>Created with Sketch.</desc>
    <defs></defs>
    <g id="Slices" stroke="none" stroke-width="1" fill="none" fill-rule="evenodd">
        <g id="cu-logo-blue" transform="translate(-1.000000, 0.000000)" fill="#003A63">
            <path d="M18.3689041,19.2963313 C18.8684144,18.5483112 19.5336902,16.6310772 19.7429033,14.7965877 C19.5336902,14.3823124 18.8684144,14.3823124 18.6603082,14.757291 C18.1998178,15.8396094 16.5775855,18.9656306 12.6609268,18.9656306 C8.74426801,18.9656306 5.16052387,15.7978221 5.16052387,10.2135462 C5.16052387,4.54929331 8.70165052,2.13116541 12.2856714,2.13116541 C16.0335206,2.13116541 17.4506908,4.09157031 18.0769466,6.38212246 C18.3689041,6.71503707 18.9923926,6.63118575 19.1584348,6.30103851 C18.9093715,4.63259114 18.7834561,2.59193251 18.7834561,1.71744359 C18.4516485,1.71744359 15.7850108,0.922931665 13.0765857,0.922931665 C9.86782023,0.922931665 6.99252281,1.75729372 4.95297112,3.34161304 C2.87080193,4.96688944 1.45252481,7.46527107 1.45252481,10.8403555 C1.45252481,14.1736527 3.16082231,16.7143751 5.41014064,18.2558002 C7.5354808,19.7142041 10.1177137,20.1738643 12.7431177,20.1738643 C15.6189686,20.1738643 17.1595634,19.5060979 18.3689041,19.2963313 Z M38.6437637,19.7142041 C39.1020401,18.9216294 39.6854017,16.8397369 39.8946149,15.0896521 C39.7686996,14.7138433 39.1020401,14.6310989 38.8098059,14.9230565 C37.6032325,18.2558002 36.0607005,18.3806085 33.3935093,18.3806085 C31.0196593,18.3806085 30.2694253,18.2129059 29.8950002,17.7989074 C29.5200215,17.3398007 29.4361702,16.0482691 29.4361702,14.7965877 L29.4361702,11.799526 C29.4361702,10.9648872 29.4361702,10.8403555 30.228745,10.8403555 L32.1863825,10.8403555 C34.3950205,10.8403555 34.6025733,11.1732701 34.9354879,12.4227377 L35.1444243,13.2155892 C35.3533607,13.5064398 35.9774027,13.4643757 36.1857856,13.1322913 C36.1016576,11.9246111 36.1016576,11.1732701 36.1016576,10.1321855 C36.1016576,9.17218488 36.1016576,8.42305783 36.1857856,7.21593103 C35.9774027,6.88107927 35.3533607,6.84012219 35.1444243,7.1326332 L34.9354879,7.92631491 C34.6025733,9.17218488 34.3950205,9.50648318 32.1863825,9.50648318 L30.228745,9.50648318 C29.4361702,9.50648318 29.4361702,9.42401555 29.4361702,8.67571871 L29.4361702,4.0481226 C29.4361702,2.7571445 29.4779575,2.71535721 30.936915,2.71535721 L32.7702976,2.71535721 C33.7684879,2.71535721 35.6444881,2.71535721 36.310594,3.71493125 C36.5613177,4.09157031 36.8098276,4.63259114 37.0611048,5.71712345 C37.3093378,6.00908098 37.977381,5.96535653 38.1436999,5.63244192 C37.9358704,3.83890943 37.7277642,1.88293232 37.6845932,1.38176161 C37.3093378,1.46505945 35.6444881,1.50795368 33.8113822,1.50795368 L27.8947451,1.50795368 C27.2286392,1.50795368 26.5619797,1.50795368 25.8950436,1.46505945 C25.2712784,1.46505945 24.6450225,1.42465585 24.0207039,1.38176161 C23.6864056,1.54863402 23.6462787,2.256804 23.9376828,2.42422989 L24.5196607,2.54876154 C26.10398,2.88112267 26.2705757,3.00648453 26.2705757,5.88150522 L26.2705757,15.2139071 C26.2705757,18.088651 26.10398,18.3385445 24.3121079,18.5483112 L23.1849581,18.6725661 C22.8943843,18.8815025 22.936725,19.5888423 23.2707466,19.7142041 C25.2712784,19.6314598 26.5619797,19.5888423 27.8947451,19.5888423 L31.5617871,19.5888423 C32.686723,19.5888423 33.8113822,19.5888423 34.9781054,19.6314598 C36.1428914,19.6314598 37.3527856,19.6721401 38.6437637,19.7142041 Z M60.4976845,10.3834627 C60.4976845,15.4638006 58.0397065,18.589545 53.0393456,18.589545 C49.8720907,18.589545 49.4569852,17.2573331 49.4569852,14.5906953 L49.4569852,4.67520864 C49.4569852,3.75533486 49.4569852,3.21542097 49.7060485,3.04937877 C50.04007,2.7571445 50.8301542,2.59193251 52.2063673,2.59193251 C56.9158775,2.59193251 60.4976845,5.25774003 60.4976845,10.3834627 Z M64.2051301,10.4659304 C64.2051301,6.63118575 62.2472158,3.58956939 58.4542585,2.30108192 C56.4977279,1.63276207 54.4556856,1.38176161 52.1238996,1.38176161 C48.746878,1.38176161 46.416199,1.46505945 44.0819224,1.63276207 C43.7058369,1.75729372 43.6654332,2.54876154 44.0409654,2.67467687 L45.2909864,2.8401656 C46.2501568,2.96608093 46.2897302,3.67369744 46.2897302,6.38212246 L46.2897302,15.2139071 C46.2897302,18.088651 46.1239648,18.2558002 44.3329229,18.5483112 L43.5409016,18.6725661 C43.2486673,18.8815025 43.2907314,19.5888423 43.6241994,19.7142041 C45.2480922,19.6314598 46.5387935,19.5888423 47.8721124,19.5888423 C48.4991984,19.5888423 49.2906662,19.6314598 50.1236446,19.6721401 C50.9992405,19.7551612 51.957304,19.797502 52.87275,19.797502 C54.9549191,19.797502 57.2894725,19.4640339 59.1638122,18.5068006 C62.4982163,16.7976729 64.2051301,13.7552263 64.2051301,10.4659304 Z M74.919003,11.799526 L72.0445358,11.799526 C71.1271527,11.799526 71.0441316,11.7151212 71.502408,10.5912922 L73.0023226,6.88107927 C73.376471,6.00908098 73.5444504,5.63244192 73.6681518,5.4647393 L73.7508962,5.4647393 C73.8759813,5.67229205 74.0434072,6.00908098 74.3768752,6.96548405 L75.6684068,10.5057805 C76.1258531,11.7151212 76.0027051,11.799526 74.919003,11.799526 Z M84.0413615,18.6725661 L83.3749788,18.5483112 C81.8767247,18.2558002 81.5000856,17.7139491 81.0016823,16.3396732 L77.2516192,6.38212246 C76.2941092,3.83890943 75.6277265,1.67399588 75.4589169,1.25861365 C75.3764493,1.00705971 75.1271093,0.922931665 74.7925342,1.048847 C74.5855349,1.54863402 73.7935137,2.3398251 73.0432796,2.63178264 C72.9613655,3.42574109 72.6685778,4.42254776 71.9595776,6.13167547 L67.9618349,15.7145243 C67.1271961,17.7139491 66.6703033,18.1727791 65.3776648,18.4644599 L64.4182176,18.6725661 C64.1265368,18.8815025 64.1265368,19.5462248 64.5012387,19.7142041 C65.2539633,19.6721401 66.2524304,19.5888423 67.4194303,19.5888423 C68.5856001,19.5888423 69.6681952,19.6314598 70.7106635,19.7142041 C71.1271527,19.6314598 71.16894,18.8815025 70.8363021,18.6725661 L69.710536,18.4644599 C68.9185147,18.2986944 68.793983,18.130715 69.2536432,16.7976729 L70.2117067,14.1310352 C70.5435143,13.1713113 70.6688762,13.1322913 71.6277699,13.1322913 L75.5853857,13.1322913 C76.542619,13.1322913 76.6685343,13.1713113 77.0022792,14.1310352 L78.0018532,16.8397369 C78.5033006,18.130715 78.542874,18.3806085 77.4594487,18.5483112 L76.6259168,18.6725661 C76.2514917,18.8391618 76.2941092,19.5888423 76.7100449,19.7142041 C77.7511295,19.6314598 78.95964,19.5888423 80.4598312,19.5888423 C81.8767247,19.5888423 82.8342347,19.6314598 83.9182135,19.7142041 C84.3322121,19.6314598 84.4168936,18.8815025 84.0413615,18.6725661 Z M94.823035,10.4659304 C92.7790555,10.4659304 92.7394821,10.4659304 92.7394821,9.42401555 L92.7394821,3.75533486 C92.7394821,2.67467687 93.0306094,2.59193251 94.5720345,2.59193251 C97.4880123,2.59193251 98.9472465,4.42254776 98.9472465,6.50527042 C98.9472465,9.38139806 97.5297996,10.4659304 94.823035,10.4659304 Z M98.6389615,11.5236192 L98.7277941,11.5139334 C98.7167246,11.4973292 98.7084225,11.483769 98.6965228,11.4635672 C98.5722679,11.255461 98.5296504,11.0066745 98.6965228,10.8403555 C100.320415,10.2561637 102.403138,9.04986713 102.403138,6.38212246 C102.403138,2.00884765 98.197566,1.38176161 94.3215875,1.38176161 C92.0302052,1.38176161 89.6984192,1.46505945 87.4053765,1.63276207 C86.9897175,1.75729372 87.0730153,2.63178264 87.4053765,2.67467687 L88.5732066,2.8401656 C89.5301631,2.96608093 89.5727806,3.67369744 89.5727806,6.38212246 L89.5727806,15.2139071 C89.5727806,18.088651 89.405078,18.1727791 87.6143129,18.5483112 L86.9897175,18.6725661 C86.6144621,18.8391618 86.6559727,19.5888423 87.0730153,19.7142041 C88.5311426,19.6314598 89.8221207,19.5888423 91.1540558,19.5888423 C92.4478013,19.5888423 93.8218005,19.6314598 95.5713318,19.7142041 C95.9053534,19.5888423 95.9471407,18.8815025 95.6549064,18.6725661 L94.6968429,18.5483112 C92.9049708,18.2986944 92.7394821,18.088651 92.7394821,15.2139071 L92.7394821,12.2575257 C92.7394821,11.6733339 92.82278,11.5905895 93.9056518,11.5905895 C94.3525821,11.5905895 94.7602157,11.7123538 95.1053067,11.9127114 L95.1761514,11.9063464 C107.848215,28.3210016 118.952287,24.0620191 118.952287,24.0620191 C120.607451,23.3574467 119.657137,23.0181672 119.657137,23.0181672 C108.729623,26.8827994 99.4035858,12.7216136 98.6389615,11.5236192 Z M127.257995,2.42422989 C127.547739,2.21473998 127.464994,1.54863402 127.049059,1.38176161 C126.383229,1.46505945 125.423229,1.50795368 124.091294,1.50795368 C122.967188,1.50795368 121.882656,1.46505945 120.673868,1.38176161 C120.341784,1.63276207 120.216422,2.1737829 120.590017,2.42422989 L121.25889,2.54876154 C122.506974,2.7975481 122.549038,3.08950563 122.259295,3.96427129 C121.842252,5.17195156 120.673868,8.04697224 119.799379,9.96420618 C119.008465,11.7151212 118.299742,13.4643757 117.467593,15.2139071 C116.842721,13.8393544 116.132891,12.2987595 115.09236,9.9232491 L113.050317,5.2986971 C112.134871,3.25554783 112.134871,2.71535721 113.218297,2.54876154 L114.091956,2.42422989 C114.467211,2.21473998 114.426254,1.54863402 114.091956,1.38176161 C112.758083,1.46505945 111.55068,1.50795368 110.050212,1.50795368 C108.75868,1.50795368 107.383574,1.46505945 106.300702,1.38176161 C105.968894,1.5895911 106.010405,2.1737829 106.261129,2.42422989 L107.634298,2.7571445 C108.634425,3.00648453 108.802128,3.21542097 110.050212,5.96535653 L114.758338,16.4215873 C115.300743,17.5883105 115.759019,18.9216294 116.132891,20.0058849 C116.29921,20.1304166 116.467189,20.1738643 116.633785,20.1738643 C116.842721,20.1738643 117.008487,20.1304166 117.133295,20.0058849 C117.633359,18.6305021 118.841593,15.5902694 120.09189,12.9239084 L123.257762,6.13167547 C124.591081,3.29982575 124.842634,2.92484712 126.090442,2.67467687 L127.257995,2.42422989 Z M137.163242,15.2139071 L137.163242,5.88150522 C137.163242,3.00648453 137.329838,2.8401656 139.119773,2.54876154 L139.912071,2.42422989 C140.202368,2.21473998 140.161411,1.50795368 139.828496,1.38176161 C138.204327,1.46505945 136.911965,1.50795368 135.578646,1.50795368 C134.24339,1.50795368 132.953519,1.46505945 131.328243,1.38176161 C130.996989,1.50795368 130.954648,2.21473998 131.246329,2.42422989 L132.038903,2.54876154 C133.830222,2.8401656 133.995157,3.00648453 133.995157,5.88150522 L133.995157,15.2139071 C133.995157,18.088651 133.830222,18.2558002 132.038903,18.5483112 L131.246329,18.6725661 C130.954648,18.8815025 130.996989,19.5888423 131.328243,19.7142041 C132.953519,19.6314598 134.24339,19.5888423 135.578646,19.5888423 C136.871562,19.5888423 138.243347,19.6314598 139.828496,19.7142041 C140.161411,19.5888423 140.202368,18.8815025 139.912071,18.6725661 L139.119773,18.5483112 C137.329838,18.2558002 137.163242,18.088651 137.163242,15.2139071 Z M159.77653,19.7142041 C160.235913,18.9216294 160.819551,16.8397369 161.026274,15.0896521 C160.903403,14.7138433 160.235913,14.6310989 159.944509,14.9230565 C158.734615,18.2558002 157.193743,18.3806085 154.652467,18.3806085 C152.486447,18.3806085 151.819511,18.088651 151.445086,17.7139491 C151.069277,17.2985669 150.987639,16.1299065 150.987639,14.8394819 L150.987639,5.88150522 C150.987639,3.00648453 151.194915,2.96608093 152.945,2.54876154 L153.486298,2.42422989 C153.779639,2.21473998 153.737298,1.50795368 153.40217,1.38176161 C152.029001,1.46505945 150.736085,1.50795368 149.402766,1.50795368 C148.069171,1.50795368 146.779023,1.46505945 145.15347,1.38176161 C144.822216,1.50795368 144.779045,2.21473998 145.070449,2.42422989 L145.861917,2.54876154 C147.654619,2.8401656 147.819554,3.00648453 147.819554,5.88150522 L147.819554,15.2139071 C147.819554,18.088651 147.654619,18.2558002 145.861917,18.5483112 L145.070449,18.6725661 C144.779045,18.8815025 144.822216,19.5888423 145.15347,19.7142041 C146.779023,19.6314598 148.069171,19.5888423 149.402766,19.5888423 L152.820468,19.5888423 C153.903064,19.5888423 154.986212,19.5888423 156.111148,19.6314598 C157.278148,19.6314598 158.485275,19.6721401 159.77653,19.7142041 Z M178.988719,19.7142041 C179.445889,18.9216294 180.03008,16.8397369 180.236526,15.0896521 C180.113655,14.7138433 179.445889,14.6310989 179.155315,14.9230565 C177.945697,18.2558002 176.405656,18.3806085 173.861613,18.3806085 C171.696422,18.3806085 171.03004,18.088651 170.655891,17.7139491 C170.280359,17.2985669 170.198445,16.1299065 170.198445,14.8394819 L170.198445,5.88150522 C170.198445,3.00648453 170.405998,2.96608093 172.154976,2.54876154 L172.698487,2.42422989 C172.98657,2.21473998 172.946997,1.50795368 172.612975,1.38176161 C171.238699,1.46505945 169.946891,1.50795368 168.613295,1.50795368 C167.279423,1.50795368 165.988445,1.46505945 164.363169,1.38176161 C164.032191,1.50795368 163.98819,2.21473998 164.281808,2.42422989 L165.072446,2.54876154 C166.863487,2.8401656 167.029253,3.00648453 167.029253,5.88150522 L167.029253,15.2139071 C167.029253,18.088651 166.863487,18.2558002 165.072446,18.5483112 L164.281808,18.6725661 C163.98819,18.8815025 164.032191,19.5888423 164.363169,19.7142041 C165.988445,19.6314598 167.279423,19.5888423 168.613295,19.5888423 L172.030167,19.5888423 C173.112209,19.5888423 174.196188,19.5888423 175.322231,19.6314598 C176.488677,19.6314598 177.695804,19.6721401 178.988719,19.7142041 Z M199.911697,15.0896521 C199.786888,14.7138433 199.119399,14.6310989 198.828271,14.9230565 C197.619761,18.2558002 196.077229,18.3806085 193.413912,18.3806085 C191.037848,18.3806085 190.288168,18.2129059 189.914296,17.7989074 C189.537934,17.3398007 189.45685,16.0482691 189.45685,14.7965877 L189.45685,11.799526 C189.45685,10.9648872 189.45685,10.8403555 190.244997,10.8403555 L192.203464,10.8403555 C194.411826,10.8403555 194.620762,11.1732701 194.953953,12.4227377 L195.161783,13.2155892 C195.371549,13.5064398 195.993377,13.4643757 196.202867,13.1322913 C196.120677,11.9246111 196.120677,11.1732701 196.120677,10.1321855 C196.120677,9.17218488 196.120677,8.42305783 196.202867,7.21593103 C195.993377,6.88107927 195.371549,6.84012219 195.161783,7.1326332 L194.953953,7.92631491 C194.620762,9.17218488 194.411826,9.50648318 192.203464,9.50648318 L190.244997,9.50648318 C189.45685,9.50648318 189.45685,9.42401555 189.45685,8.67571871 L189.45685,4.0481226 C189.45685,2.7571445 189.494763,2.71535721 190.953997,2.71535721 L192.787656,2.71535721 C193.788337,2.71535721 195.66323,2.71535721 196.329613,3.71493125 C196.578953,4.09157031 196.828016,4.63259114 197.07874,5.71712345 C197.32891,6.00908098 197.99557,5.96535653 198.160782,5.63244192 C197.954613,3.83890943 197.745399,1.88293232 197.702505,1.38176161 C197.32891,1.46505945 195.66323,1.50795368 193.828464,1.50795368 L187.912934,1.50795368 C187.245998,1.50795368 186.579338,1.50795368 185.913232,1.46505945 C185.288914,1.46505945 184.664318,1.42465585 184.037509,1.38176161 C183.704871,1.54863402 183.663914,2.256804 183.955595,2.42422989 L184.538126,2.54876154 C186.120785,2.88112267 186.288764,3.00648453 186.288764,5.88150522 L186.288764,15.2139071 C186.288764,18.088651 186.120785,18.3385445 184.33085,18.5483112 L183.204254,18.6725661 C182.91451,18.8815025 182.954914,19.5888423 183.288659,19.7142041 C185.288914,19.6314598 186.579338,19.5888423 187.912934,19.5888423 L191.578315,19.5888423 C192.703805,19.5888423 193.828464,19.5888423 194.99491,19.6314598 C196.162464,19.6314598 197.370421,19.6721401 198.661399,19.7142041 C199.119399,18.9216294 199.70276,16.8397369 199.911697,15.0896521 Z" id="Fill-3"></path>
            <path d="M180.989804,30.9389336 C180.490017,30.967991 180.07934,30.9832115 179.625491,30.9832115 C179.169982,30.9832115 178.744637,30.967991 178.215239,30.9389336 C178.100117,30.9981553 178.083236,31.2012803 178.186182,31.3047799 L178.451019,31.3346675 C178.802475,31.377285 179.067589,31.4802312 179.067589,31.5690637 C179.067589,31.7456219 178.523524,32.7432588 178.114507,33.5062227 C177.674218,34.3580192 177.188545,35.2076018 176.732482,35.9866165 C176.16102,34.9740358 175.618616,33.8150612 175.075658,32.7285918 C175.002599,32.5819212 174.620702,31.7456219 174.620702,31.5992281 C174.620702,31.4802312 174.724202,31.4226699 175.236442,31.3346675 L175.427944,31.3047799 C175.514286,31.2162241 175.514286,30.9832115 175.383389,30.9389336 C175.016713,30.967991 174.487592,30.9832115 173.81346,30.9832115 C173.108888,30.9832115 172.581151,30.967991 172.111528,30.9389336 C172.008305,30.9981553 171.993915,31.2012803 172.081917,31.3047799 L172.493148,31.377285 C172.932607,31.450897 173.153996,31.525616 173.651569,32.4922584 L175.383389,35.8695567 C175.810395,36.6917423 175.852459,36.8815839 175.852459,37.6882723 L175.852459,38.4376761 C175.852459,40.0067748 175.822294,40.2132207 174.972712,40.3017765 L174.51831,40.3457777 C174.429754,40.4332266 174.459088,40.6681763 174.547644,40.7119007 C175.324444,40.6814597 175.852459,40.6681763 176.470412,40.6681763 C177.057095,40.6681763 177.556605,40.6814597 178.464302,40.7119007 C178.554242,40.6681763 178.583023,40.4332266 178.495297,40.3457777 L177.937672,40.3017765 C177.14399,40.243385 177.057095,40.0067748 177.057095,38.4376761 L177.057095,37.6752656 C177.057095,36.5442415 177.086429,36.3975709 177.746723,35.2978181 L178.671578,33.6971713 C179.405208,32.435804 179.844113,31.4968354 180.607354,31.377285 L181.018862,31.3047799 C181.121531,31.2162241 181.105757,31.0122689 180.989804,30.9389336 Z M163.145526,30.6145978 C163.115085,30.5567598 162.955131,30.5423695 162.881242,30.5708734 C162.660406,30.9536006 162.528402,30.982658 161.735551,30.982658 L155.793177,30.982658 C155.117939,30.982658 154.632819,30.9976018 154.54537,30.5282559 C154.501922,30.4848082 154.31042,30.4975381 154.266696,30.5282559 C154.163473,31.1152151 153.944574,32.0536302 153.708794,32.7128178 C153.768016,32.8318147 153.973355,32.9068104 154.089031,32.8160407 C154.252859,32.4501943 154.398423,32.1277957 154.751262,31.8042902 C155.117939,31.4663943 155.924904,31.4367834 156.556418,31.4367834 L157.361723,31.4367834 C157.803118,31.4367834 157.803118,31.4514505 157.803118,31.9058527 L157.803118,38.4664567 C157.803118,40.0081585 157.73006,40.226504 156.89376,40.3017765 L156.364639,40.3452242 C156.248133,40.419113 156.277744,40.6681763 156.364639,40.7127309 C157.304715,40.6825666 157.816955,40.6681763 158.405575,40.6681763 C158.99281,40.6681763 159.49066,40.6825666 160.327236,40.7127309 C160.415239,40.6681763 160.444019,40.4036157 160.356294,40.3452242 L159.886948,40.3017765 C159.035705,40.2132207 159.006094,40.0081585 159.006094,38.4664567 L159.006094,31.9365705 C159.006094,31.4514505 158.99281,31.4367834 159.431992,31.4367834 L160.47446,31.4367834 C161.280595,31.4367834 161.839327,31.5549501 162.178884,31.8042902 C162.396399,31.9645209 162.499345,32.5088626 162.542516,32.8760926 C162.616958,32.9643717 162.866852,32.9643717 162.925797,32.8459282 C162.881242,32.4059164 162.983358,31.2162241 163.145526,30.6145978 Z M143.51574,38.4376761 L143.51574,33.2126048 C143.51574,31.6576196 143.544798,31.4091097 144.409878,31.3338373 L144.777384,31.3056101 C144.865387,31.2463884 144.837159,30.982658 144.746666,30.9383801 C144.01442,30.9674375 143.51574,30.982658 142.928781,30.982658 C142.313041,30.982658 141.812978,30.9674375 141.080178,30.9383801 C140.991899,30.982658 140.961458,31.2463884 141.05029,31.3056101 L141.416137,31.3338373 C142.282877,31.4091097 142.313041,31.6576196 142.313041,33.2126048 L142.313041,38.4376761 C142.313041,39.9934915 142.282877,40.1988303 141.416137,40.3017765 L141.05029,40.344394 C140.961458,40.4340568 140.991899,40.6681763 141.080178,40.7119007 C141.812978,40.6825666 142.313041,40.6681763 142.928781,40.6681763 C143.51574,40.6681763 144.01442,40.6825666 144.746666,40.7119007 C144.837159,40.6681763 144.865387,40.4052761 144.777384,40.344394 L144.409878,40.3017765 C143.544798,40.1988303 143.51574,39.9934915 143.51574,38.4376761 Z M127.862389,32.8318147 C127.862389,32.1571299 128.170397,31.2032174 129.609706,31.2032174 C131.018021,31.2032174 131.414308,32.1571299 131.60498,32.8605953 C131.677762,32.9494279 131.913542,32.9068104 131.972487,32.8160407 C131.972487,32.201131 131.839099,31.3781152 131.708479,31.0263825 C131.589759,31.0263825 131.385527,30.982658 131.194025,30.9383801 C130.813235,30.8215971 130.284944,30.7477083 129.829158,30.7477083 C127.922994,30.7477083 126.835971,31.8773488 126.835971,33.27238 C126.835971,34.4759092 127.686384,35.3124851 128.419737,35.7953912 L129.814768,36.7064094 C130.886294,37.394931 131.018021,38.114724 131.018021,38.7592445 C131.018021,39.6406518 130.414734,40.4487238 129.183254,40.4487238 C127.481875,40.4487238 126.880526,39.0102449 126.659413,38.2625015 C126.599361,38.1733922 126.379909,38.2035566 126.30685,38.306226 C126.336461,38.9947476 126.526579,40.0363857 126.702861,40.360168 C126.982642,40.520122 127.760273,40.9036795 128.992583,40.9036795 C130.901238,40.9036795 132.117497,39.8017127 132.117497,38.188336 C132.117497,36.7927513 131.209523,35.9417851 130.284944,35.3700464 L129.110472,34.6364166 C128.567515,34.2844072 127.862389,33.6819507 127.862389,32.8318147 Z M117.379868,40.7564554 C117.453757,40.6972337 117.437983,40.579067 117.364371,40.5502863 C116.970297,40.5206755 116.602237,40.3609982 116.353174,40.1396086 C115.354983,39.3030327 114.577352,38.1296678 113.403157,36.2362332 C113.329268,36.119727 113.25621,35.9727796 113.329268,35.8842238 C114.062898,35.5908825 115.164588,34.8273652 115.164588,33.4342711 C115.164588,32.4059164 114.650411,31.7450685 113.945838,31.3792222 C113.2706,31.0122689 112.404967,30.9383801 111.496162,30.9383801 C110.056577,30.9383801 109.044826,30.982658 108.223471,31.0562701 C108.105304,31.1152151 108.105304,31.3493346 108.20825,31.4221164 L108.67815,31.4810614 C109.278669,31.5549501 109.3235,31.8042902 109.3235,33.1982144 L109.3235,38.4664567 C109.3235,40.0081585 109.293889,40.1988303 108.4432,40.3017765 L108.075693,40.3452242 C107.987691,40.4492773 108.018132,40.6681763 108.105304,40.7127309 C108.795209,40.6825666 109.3235,40.6681763 109.94007,40.6681763 C110.52703,40.6681763 111.02571,40.6825666 111.687111,40.7127309 C111.774837,40.6681763 111.802787,40.419113 111.716445,40.3452242 L111.40733,40.3017765 C110.557471,40.185547 110.52703,40.0081585 110.52703,38.4664567 L110.52703,36.6164699 C110.52703,36.3103987 110.557471,36.2949015 111.215828,36.2949015 C111.802787,36.2949015 112.038014,36.4399117 112.256636,36.7642474 C112.713529,37.4245419 113.315432,38.4376761 113.696498,38.9814643 C114.738136,40.4628374 115.48588,40.8300674 116.73341,40.8300674 C117.013191,40.8300674 117.248418,40.7996264 117.379868,40.7564554 Z M113.097086,35.4724391 C112.670081,35.7953912 112.111072,35.8562733 111.583058,35.8562733 C110.834761,35.8562733 110.615862,35.825002 110.5702,35.7818311 C110.52703,35.7226094 110.52703,35.5604415 110.52703,35.2967111 L110.52703,31.8632352 C110.52703,31.4514505 110.5702,31.3927823 111.480665,31.3927823 C113.108432,31.3927823 113.829332,32.4922584 113.829332,33.655384 C113.829332,34.650807 113.491436,35.1649843 113.097086,35.4724391 Z M98.4850957,40.7127309 C98.675214,40.3161668 99.0416138,39.1859729 99.1448367,38.6717956 C99.0867219,38.5406222 98.8819366,38.4968978 98.7781602,38.5691261 C98.3965399,39.333197 97.9988688,39.8470976 97.7359686,39.9934915 C97.4124631,40.1545524 96.9873951,40.2132207 95.8577546,40.2132207 C94.5670533,40.2132207 94.257938,40.0510528 94.08221,39.875048 C93.8461534,39.6251545 93.8035359,39.1267512 93.8035359,38.3485667 L93.8035359,36.2799577 C93.8035359,35.8983374 93.8461534,35.8842238 94.2869954,35.8842238 L95.1382384,35.8842238 C95.711084,35.8842238 96.0628167,35.8983374 96.2695393,35.9589428 C96.562327,36.0308944 96.6638895,36.2509003 96.7228345,36.5151841 L96.8551148,37.0880297 C96.9298338,37.1752019 97.1791738,37.1752019 97.2367351,37.0722557 C97.2367351,36.7484734 97.1791738,36.1927855 97.1791738,35.6639411 C97.1791738,35.107423 97.2367351,34.5334705 97.2367351,34.1833982 C97.1791738,34.0798985 96.9298338,34.0798985 96.8551148,34.1670707 L96.7375016,34.7681434 C96.6638895,35.1375873 96.562327,35.2233758 96.3854921,35.2828743 C96.2094874,35.3401588 95.7550852,35.3700464 95.1382384,35.3700464 L94.2869954,35.3700464 C93.8461534,35.3700464 93.8035359,35.3700464 93.8035359,34.9599222 L93.8035359,32.0251263 C93.8035359,31.4669478 93.8035359,31.4367834 94.2435477,31.4367834 L95.3004063,31.4367834 C95.9465872,31.4367834 96.4156564,31.4514505 96.7228345,31.5261695 C97.4866286,31.7168413 97.6186322,32.2307419 97.8389148,32.9181566 C97.9116966,33.0083729 98.1471998,32.978762 98.2058681,32.8910364 C98.1471998,32.2448555 98.058644,31.1877201 97.9700881,30.9383801 C97.7940834,30.982658 96.9298338,30.982658 95.9897582,30.982658 L93.2301368,30.982658 C92.6290641,30.982658 92.1301072,30.9674375 91.4983167,30.9383801 C91.4097608,30.982658 91.3818104,31.2458349 91.469536,31.3056101 L91.705316,31.3338373 C92.5701191,31.4367834 92.6000067,31.6584498 92.6000067,33.1841009 L92.6000067,38.4664567 C92.6000067,40.0081585 92.5255644,40.226504 91.6900954,40.3017765 L91.2046987,40.3452242 C91.1166964,40.4340568 91.1452003,40.6681763 91.2337561,40.7127309 C92.1004964,40.6825666 92.6000067,40.6681763 93.2301368,40.6681763 L94.5518327,40.6681763 C95.8577546,40.6681763 97.1633998,40.6825666 98.4850957,40.7127309 Z M82.2212622,31.3056101 C82.2954278,31.2311679 82.2954278,30.9981553 82.1922049,30.9383801 C81.7084686,30.967991 81.2537897,30.982658 80.7689465,30.982658 C80.2102145,30.982658 79.6542498,30.967991 79.2424652,30.9383801 C79.1392423,30.9981553 79.1099082,31.2170543 79.2128543,31.3056101 L79.4774149,31.3338373 C79.9921457,31.3936125 80.1371559,31.5101188 80.1371559,31.6141719 C80.1371559,31.7173948 80.1227656,31.8773488 80.0062593,32.186464 C79.7569193,32.8165941 79.0811275,34.4753557 78.6413924,35.4732693 C78.3176101,36.2509003 77.6860963,37.7618843 77.2316941,38.731294 C76.4986178,37.0578654 75.8228261,35.3714301 75.1478645,33.6672837 C74.6929089,32.5523103 74.4435689,31.7591821 74.4145115,31.6141719 C74.4294553,31.4973888 74.5462383,31.4077261 75.1035866,31.3338373 L75.324146,31.3056101 C75.4265387,31.2170543 75.3972046,30.9981553 75.2953654,30.9383801 C74.6785186,30.967991 74.1654482,30.982658 73.519544,30.982658 C72.8877535,30.982658 72.4186842,30.967991 71.9919558,30.9383801 C71.874896,31.0114387 71.8605057,31.2170543 71.9637286,31.3056101 L72.2277357,31.3338373 C72.8584193,31.4077261 73.078702,31.7173948 73.4174281,32.53792 L75.9993843,38.908129 C76.2633914,39.523592 76.5135616,40.2425548 76.6737923,40.8582946 C76.7471277,40.8881822 76.8207397,40.9036795 76.8946285,40.9036795 C76.9535735,40.9036795 77.0111347,40.8881822 77.0559661,40.8582946 C77.3055829,40.0812171 77.9952115,38.379838 78.5824474,37.0293615 L79.3739153,35.2239293 C80.0350399,33.7262286 80.6078855,32.53792 81.0182865,31.8485681 C81.209235,31.5416668 81.4289642,31.3640016 81.7818039,31.3338373 L82.2212622,31.3056101 Z M61.7001068,38.4376761 L61.7001068,33.2126048 C61.7001068,31.6576196 61.7297176,31.4091097 62.5961812,31.3338373 L62.9623042,31.3056101 C63.0516903,31.2463884 63.0220794,30.982658 62.9329701,30.9383801 C62.2001705,30.9674375 61.7001068,30.982658 61.1137011,30.982658 C60.4968543,30.982658 59.9981742,30.9674375 59.2645444,30.9383801 C59.1765421,30.982658 59.146101,31.2463884 59.2352103,31.3056101 L59.6024403,31.3338373 C60.4683504,31.4091097 60.4968543,31.6576196 60.4968543,33.2126048 L60.4968543,38.4376761 C60.4968543,39.9934915 60.4683504,40.1988303 59.6024403,40.3017765 L59.2352103,40.344394 C59.146101,40.4340568 59.1765421,40.6681763 59.2645444,40.7119007 C59.9981742,40.6825666 60.4968543,40.6681763 61.1137011,40.6681763 C61.7001068,40.6681763 62.2001705,40.6825666 62.9329701,40.7119007 C63.0220794,40.6681763 63.0516903,40.4052761 62.9623042,40.344394 L62.5961812,40.3017765 C61.7297176,40.1988303 61.7001068,39.9934915 61.7001068,38.4376761 Z M50.2404276,31.3056101 C50.3281533,31.2162241 50.3281533,31.0122689 50.21054,30.9383801 C49.7129669,30.967991 49.3307931,30.9832115 48.699556,30.9832115 C48.140824,30.9832115 47.6429741,30.967991 46.9682893,30.9383801 C46.8501226,30.9832115 46.8357323,31.2162241 46.9378483,31.3056101 L47.1877418,31.3338373 C47.774701,31.4091097 48.0104809,31.4968354 48.0982065,31.6288389 C48.375497,32.0688508 48.391271,33.9761222 48.391271,34.666581 L48.391271,37.8067157 C48.391271,38.114724 48.391271,38.3485667 48.3328795,38.4232857 L48.3035454,38.4232857 C47.6128098,37.7178831 46.880287,36.9111948 45.8818199,35.7674408 L44.4588382,34.1670707 C43.9889388,33.6232825 42.2418981,31.6864002 41.9485569,30.9383801 C41.7573316,30.967991 41.5077149,30.9832115 41.2733186,30.9832115 C41.0095883,30.9832115 40.2316806,30.9832115 39.6148338,30.9383801 C39.4980508,30.9976018 39.4980508,31.2162241 39.5860531,31.3056101 L39.8351164,31.3338373 C40.1879561,31.3792222 40.5405191,31.4810614 40.7455812,31.6864002 C41.0535894,32.0251263 41.0690867,32.3325811 41.0690867,32.7432588 L41.0690867,36.9853603 C41.0690867,37.6877188 41.0826468,39.4787607 40.8778615,40.0081585 C40.8045261,40.1694962 40.5684695,40.2724424 40.2316806,40.3017765 L39.8351164,40.3452242 C39.7476675,40.4340568 39.7620579,40.6388422 39.8652808,40.7127309 C40.3780744,40.6825666 40.7749153,40.6681763 41.3906551,40.6681763 C41.9336131,40.6681763 42.447237,40.6825666 43.1080849,40.7127309 C43.2107544,40.6388422 43.2251447,40.4628374 43.1376958,40.3452242 L42.6830169,40.3017765 C42.3160636,40.2724424 42.0362825,40.185547 41.9336131,40.0222721 C41.6989401,39.5828138 41.669606,37.6752656 41.669606,36.9853603 L41.669606,33.7840667 C41.669606,33.3443316 41.68538,33.0083729 41.7432181,32.8318147 L41.7728289,32.8318147 C42.0813907,33.1547667 43.0801345,34.3585727 43.4747615,34.8129748 L46.880287,38.6878463 C48.1563213,40.1401621 48.5824963,40.6529557 48.7582243,40.9028493 C48.9190084,40.9028493 49.0075643,40.8300674 49.0371751,40.7437255 C48.993174,40.3609982 48.993174,38.6142343 48.993174,38.1733922 L48.993174,34.666581 C48.993174,33.9905125 48.9635631,32.1701365 49.2129031,31.643506 C49.2718481,31.525616 49.5646359,31.4091097 50.0353655,31.3338373 L50.2404276,31.3056101 Z M30.5882263,31.290943 C30.6612849,31.2018337 30.6762287,31.0114387 30.5586155,30.9389336 C30.0297711,30.967991 29.6345906,30.982658 29.0177439,30.982658 C28.4457285,30.982658 27.902217,30.967991 27.3440385,30.9389336 C27.2563129,30.9981553 27.2264253,31.1877201 27.3147044,31.290943 L27.6827646,31.3211074 C28.0491644,31.3493346 28.3137249,31.450897 28.4158409,31.6288389 C28.6660111,32.069681 28.6947918,33.7561162 28.6947918,34.666581 L28.6947918,36.353293 C28.6947918,38.5835165 27.8883802,40.2566684 25.7599959,40.2566684 C23.5137217,40.2566684 22.7811988,38.7014064 22.7811988,36.3386259 L22.7811988,33.1697105 C22.7811988,31.643506 22.810533,31.3936125 23.6609458,31.3211074 L24.0129552,31.290943 C24.1006809,31.2311679 24.0724537,30.982658 23.9841746,30.9389336 C23.2643816,30.967991 22.7811988,30.982658 22.1798493,30.982658 C21.59206,30.982658 21.0931031,30.967991 20.3586431,30.9389336 C20.2709175,30.982658 20.2421369,31.2311679 20.330416,31.290943 L20.696539,31.3211074 C21.5480588,31.3936125 21.5765627,31.643506 21.5765627,33.1697105 L21.5765627,36.6319671 C21.5765627,38.379838 21.9440694,39.44998 22.7217004,40.0961609 C23.4403864,40.7119007 24.4535205,40.9036795 25.4663779,40.9036795 C26.5517405,40.9036795 27.6376564,40.5206755 28.2688935,39.8313236 C29.0910792,38.9518534 29.2966948,37.6002699 29.2966948,36.3242356 L29.2966948,34.666581 C29.2966948,33.8455023 29.281751,32.1560229 29.5014801,31.6720099 C29.5761991,31.4802312 29.8689869,31.3493346 30.2356634,31.3211074 L30.5882263,31.290943 Z" id="Fill-4"></path>
            <path d="M187.567566,39.2526665 L187.863675,39.2526665 C188.140412,39.2526665 188.311989,39.1140213 188.311989,38.9039779 C188.311989,38.6521472 188.109971,38.5580567 187.847347,38.5580567 C187.705935,38.5580567 187.611844,38.5716168 187.567566,38.5826862 L187.567566,39.2526665 Z M187.315735,38.4086187 C187.448292,38.3837123 187.648097,38.3671081 187.830466,38.3671081 C188.109971,38.3671081 188.290126,38.4196882 188.412167,38.5248482 C188.502937,38.6048252 188.563819,38.7321242 188.563819,38.8765809 C188.563819,39.1250908 188.392519,39.291133 188.192992,39.3522918 L188.192992,39.3575498 C188.337172,39.4101299 188.428218,39.5462845 188.474987,39.7231194 C188.544448,39.9862963 188.589002,40.1717101 188.630513,40.2489197 L188.37038,40.2489197 C188.339662,40.1963397 188.295661,40.0416437 188.240314,39.8061405 C188.179155,39.5515425 188.073995,39.4491498 187.841259,39.4411244 L187.567566,39.4411244 L187.567566,40.2489197 L187.315735,40.2489197 L187.315735,38.4086187 Z M187.918745,37.9603047 C187.173493,37.9603047 186.567162,38.5669122 186.567162,39.3118882 C186.567162,40.057141 187.173493,40.6637485 187.918745,40.6637485 C188.663998,40.6637485 189.270329,40.057141 189.270329,39.3118882 C189.270329,38.5669122 188.663998,37.9603047 187.918745,37.9603047 Z M187.918745,41.0074558 C186.983651,41.0074558 186.223178,40.2469826 186.223178,39.3118882 C186.223178,38.3770707 186.983651,37.6165974 187.918745,37.6165974 C188.853563,37.6165974 189.614036,38.3770707 189.614036,39.3118882 C189.614036,40.2469826 188.853563,41.0074558 187.918745,41.0074558 Z" id="Fill-5"></path>
        </g>
    </g>
</svg>