<?xml version="1.0" encoding="UTF-8"?>
<svg width="200px" height="41px" viewBox="0 0 200 41" version="1.1" xmlns="http://www.w3.org/2000/svg" xmlns:xlink="http://www.w3.org/1999/xlink">
    <!-- Generator: Sketch 49.3 (51167) - http://www.bohemiancoding.com/sketch -->
    <title>cu-logo-white</title>
    <desc>Created with Sketch.</desc>
    <defs></defs>
    <g id="Slices" stroke="none" stroke-width="1" fill="none" fill-rule="evenodd">
        <g id="cu-logo-white" style="mix-blend-mode: lighten;" transform="translate(0.000000, -1.000000)" fill="#FFFFFE">
            <path d="M17.7793564,19.4180472 C18.2803502,18.6678056 18.9476016,16.7448779 19.1574361,14.9049403 C18.9476016,14.4894347 18.2803502,14.4894347 18.0716259,14.8655269 C17.609768,15.9510596 15.982718,19.0863643 12.0544276,19.0863643 C8.12613724,19.0863643 4.53175014,15.9091482 4.53175014,10.3082882 C4.53175014,4.62721367 8.08339317,2.20190445 11.6780578,2.20190445 C15.4370373,2.20190445 16.8584162,4.16813133 17.4865319,6.46548592 C17.7793564,6.79938922 18.4046965,6.71528889 18.5712318,6.38416118 C18.3214289,4.71075888 18.1951396,2.66403993 18.1951396,1.78695397 C17.8623465,1.78695397 15.1877895,0.990082511 12.471321,0.990082511 C9.25302616,0.990082511 6.36918972,1.82692244 4.32358101,3.41594685 C2.23522823,5.04604997 0.812739127,7.55185126 0.812739127,10.936959 C0.812739127,14.2801553 2.5261099,16.8284231 4.78210823,18.3744259 C6.91376018,19.837161 9.5036618,20.2981863 12.1368626,20.2981863 C15.0212542,20.2981863 16.5664243,19.6284368 17.7793564,19.4180472 Z M38.114428,19.837161 C38.5740654,19.0422325 39.1591595,16.9541573 39.3689939,15.1988751 C39.2427047,14.8219502 38.5740654,14.7389601 38.2809633,15.0317847 C37.0708067,18.3744259 35.5236937,18.4996049 32.8485815,18.4996049 C30.4676817,18.4996049 29.7152196,18.3314043 29.3396825,17.9161762 C28.9635903,17.4557061 28.8794899,16.160339 28.8794899,14.9049403 L28.8794899,11.8989779 C28.8794899,11.0618605 28.8794899,10.936959 29.6744185,10.936959 L31.6378698,10.936959 C33.8530669,10.936959 34.0612361,11.2708623 34.3951394,12.5240405 L34.6046963,13.3192466 C34.8142532,13.6109609 35.4401484,13.568772 35.6491503,13.2357014 C35.5647724,12.0244345 35.5647724,11.2708623 35.5647724,10.2266859 C35.5647724,9.26383424 35.5647724,8.51248243 35.6491503,7.30177074 C35.4401484,6.96592453 34.8142532,6.92484582 34.6046963,7.21822552 L34.3951394,8.0142643 C34.0612361,9.26383424 33.8530669,9.59912533 31.6378698,9.59912533 L29.6744185,9.59912533 C28.8794899,9.59912533 28.8794899,9.51641279 28.8794899,8.76589366 L28.8794899,4.12455459 C28.8794899,2.82974256 28.9214013,2.78783118 30.3846916,2.78783118 L32.2235189,2.78783118 C33.2246737,2.78783118 35.1062451,2.78783118 35.7743293,3.79037374 C36.0257976,4.16813133 36.2750455,4.71075888 36.5270689,5.79851201 C36.7760392,6.0913366 37.4460662,6.0474823 37.6128791,5.713579 C37.4044324,3.9147201 37.1957082,1.95293416 37.152409,1.45027508 C36.7760392,1.5338203 35.1062451,1.57684192 33.2676953,1.57684192 L27.3334871,1.57684192 C26.665403,1.57684192 25.9967637,1.57684192 25.3278469,1.5338203 C24.7022293,1.5338203 24.0741136,1.4932967 23.4479408,1.45027508 C23.1126497,1.61764307 23.0724037,2.32791616 23.3646732,2.49583927 L23.9483794,2.62074075 C25.5374038,2.95408893 25.7044943,3.07982308 25.7044943,5.96338197 L25.7044943,15.323499 C25.7044943,18.2067804 25.5374038,18.457416 23.7402103,18.6678056 L22.6097131,18.7924295 C22.3182763,19.0019865 22.3607428,19.7114269 22.6957563,19.837161 C24.7022293,19.7541709 25.9967637,19.7114269 27.3334871,19.7114269 L31.0114194,19.7114269 C32.1396962,19.7114269 33.2676953,19.7114269 34.4378834,19.7541709 C35.6061286,19.7541709 36.8196159,19.7949721 38.114428,19.837161 Z M60.0332503,10.4787093 C60.0332503,15.5741347 57.5679726,18.7091619 52.5527617,18.7091619 C49.3761007,18.7091619 48.9597624,17.3729936 48.9597624,14.6984365 L48.9597624,4.75350294 C48.9597624,3.83089733 48.9597624,3.28938002 49.2095654,3.12284471 C49.5445789,2.82974256 50.3370094,2.66403993 51.7173096,2.66403993 C56.4408061,2.66403993 60.0332503,5.33776432 60.0332503,10.4787093 Z M63.7517061,10.5614219 C63.7517061,6.71528889 61.7879773,3.66463958 57.9837557,2.37232558 C56.0214146,1.70202096 53.9733079,1.45027508 51.634597,1.45027508 C48.2475464,1.45027508 45.9099458,1.5338203 43.5687369,1.70202096 C43.1915344,1.82692244 43.1510108,2.62074075 43.5276582,2.74703002 L44.7813915,2.91301022 C45.7434105,3.03929949 45.7831014,3.74901747 45.7831014,6.46548592 L45.7831014,15.323499 C45.7831014,18.2067804 45.6168436,18.3744259 43.8204828,18.6678056 L43.0261093,18.7924295 C42.7330072,19.0019865 42.7751961,19.7114269 43.1096546,19.837161 C44.7383699,19.7541709 46.0329044,19.7114269 47.3701829,19.7114269 C47.9991312,19.7114269 48.7929495,19.7541709 49.6284017,19.7949721 C50.5065979,19.8782397 51.4675066,19.9207062 52.3856713,19.9207062 C54.4740241,19.9207062 56.8155105,19.5862478 58.6954166,18.6261718 C62.0397232,16.9119683 63.7517061,13.8604863 63.7517061,10.5614219 Z M74.497397,11.8989779 L71.6143932,11.8989779 C70.6942856,11.8989779 70.611018,11.8143225 71.0706554,10.687156 L72.5750244,6.96592453 C72.950284,6.0913366 73.1187622,5.713579 73.242831,5.54537834 L73.3258211,5.54537834 C73.4512777,5.75354748 73.6192008,6.0913366 73.9536592,7.05057998 L75.2490263,10.6013903 C75.7078311,11.8143225 75.5843174,11.8989779 74.497397,11.8989779 Z M83.6468469,18.7924295 L82.9784852,18.6678056 C81.4757816,18.3744259 81.098024,17.8309657 80.5981405,16.4526084 L76.8369405,6.46548592 C75.8765869,3.9147201 75.2082252,1.74337723 75.0389143,1.32676139 C74.9562018,1.0744604 74.7061212,0.990082511 74.3705526,1.11637179 C74.1629386,1.61764307 73.3685651,2.41118382 72.6161031,2.7040084 C72.5339457,3.50032474 72.2402884,4.50009171 71.5291827,6.21429517 L67.5195675,15.825603 C66.68245,17.8309657 66.2242004,18.2911582 64.927723,18.5837053 L63.9654265,18.7924295 C63.6728794,19.0019865 63.6728794,19.6686828 64.0486941,19.837161 C64.8036542,19.7949721 65.8050865,19.7114269 66.9755522,19.7114269 C68.1451852,19.7114269 69.2309954,19.7541709 70.2765596,19.837161 C70.6942856,19.7541709 70.736197,19.0019865 70.4025713,18.7924295 L69.2734619,18.5837053 C68.4790885,18.4174475 68.354187,18.2489693 68.8152122,16.9119683 L69.776121,14.2374113 C70.108914,13.2748372 70.2346482,13.2357014 71.1963896,13.2357014 L75.1657587,13.2357014 C76.1258348,13.2357014 76.252124,13.2748372 76.58686,14.2374113 L77.5894026,16.9541573 C78.0923392,18.2489693 78.1320301,18.4996049 77.0453872,18.6678056 L76.20938,18.7924295 C75.8338428,18.9595199 75.8765869,19.7114269 76.2937579,19.837161 C77.3379342,19.7541709 78.5500337,19.7114269 80.0546803,19.7114269 C81.4757816,19.7114269 82.4361352,19.7541709 83.5233332,19.837161 C83.9385612,19.7541709 84.0234942,19.0019865 83.6468469,18.7924295 Z M94.4605396,10.5614219 C92.41049,10.5614219 92.3707991,10.5614219 92.3707991,9.51641279 L92.3707991,3.83089733 C92.3707991,2.74703002 92.662791,2.66403993 94.2087938,2.66403993 C97.1334313,2.66403993 98.5969992,4.50009171 98.5969992,6.58899961 C98.5969992,9.47366873 97.1753427,10.5614219 94.4605396,10.5614219 Z M98.2877986,11.6222518 L98.376895,11.6125372 C98.3657926,11.5958837 98.3574659,11.5822833 98.3455308,11.5620215 C98.2209069,11.3532973 98.1781629,11.1037718 98.3455308,10.936959 C99.9742462,10.3510322 102.063154,9.14115323 102.063154,6.46548592 C102.063154,2.07922343 97.8450922,1.45027508 93.957603,1.45027508 C91.6594157,1.45027508 89.3207049,1.5338203 87.0208522,1.70202096 C86.6039589,1.82692244 86.6875041,2.7040084 87.0208522,2.74703002 L88.1921506,2.91301022 C89.1519491,3.03929949 89.1946932,3.74901747 89.1946932,6.46548592 L89.1946932,15.323499 C89.1946932,18.2067804 89.0264925,18.2911582 87.2304092,18.6678056 L86.6039589,18.7924295 C86.2275891,18.9595199 86.2692229,19.7114269 86.6875041,19.837161 C88.1499616,19.7541709 89.4447737,19.7114269 90.7806644,19.7114269 C92.078252,19.7114269 93.4563317,19.7541709 95.2110588,19.837161 C95.5460723,19.7114269 95.5879837,19.0019865 95.2948815,18.7924295 L94.3339728,18.6678056 C92.5367793,18.4174475 92.3707991,18.2067804 92.3707991,15.323499 L92.3707991,12.3583378 C92.3707991,11.7724111 92.4543443,11.689421 93.5404321,11.689421 C93.9886896,11.689421 94.3975338,11.8115469 94.7436497,12.0124995 L94.8147047,12.0061157 C107.524402,28.4695188 118.661451,24.1978881 118.661451,24.1978881 C120.32153,23.4912233 119.368393,23.1509361 119.368393,23.1509361 C108.408427,27.0270455 99.0546937,12.823804 98.2877986,11.6222518 Z M126.991825,2.49583927 C127.282429,2.28572722 127.199439,1.61764307 126.782268,1.45027508 C126.114461,1.5338203 125.151609,1.57684192 123.815719,1.57684192 C122.688275,1.57684192 121.600521,1.5338203 120.388144,1.45027508 C120.055074,1.70202096 119.92934,2.24464851 120.304044,2.49583927 L120.974904,2.62074075 C122.226694,2.87026615 122.268883,3.16309074 121.978279,4.04045426 C121.559998,5.25172108 120.388144,8.13527996 119.511058,10.0582077 C118.717795,11.8143225 118.006967,13.568772 117.172348,15.323499 C116.54562,13.9448642 115.833681,12.3996941 114.79006,10.017129 L112.741953,5.37884303 C111.823789,3.32962605 111.823789,2.78783118 112.910431,2.62074075 L113.786685,2.49583927 C114.163055,2.28572722 114.121976,1.61764307 113.786685,1.45027508 C112.448851,1.5338203 111.237862,1.57684192 109.732938,1.57684192 C108.437571,1.57684192 107.058381,1.5338203 105.972293,1.45027508 C105.6395,1.65872178 105.681134,2.24464851 105.932602,2.49583927 L107.309849,2.82974256 C108.312947,3.07982308 108.481147,3.28938002 109.732938,6.0474823 L114.455046,16.5347658 C114.999062,17.704954 115.458699,19.0422325 115.833681,20.1297081 C116.000494,20.2546095 116.168972,20.2981863 116.336063,20.2981863 C116.54562,20.2981863 116.711877,20.2546095 116.837056,20.1297081 C117.338605,18.7502406 118.550427,15.7009791 119.804438,13.0266996 L122.979711,6.21429517 C124.31699,3.37403546 124.569291,2.99794322 125.820804,2.74703002 L126.991825,2.49583927 Z M136.926488,15.323499 L136.926488,5.96338197 C136.926488,3.07982308 137.093579,2.91301022 138.888829,2.62074075 L139.68348,2.49583927 C139.97464,2.28572722 139.933561,1.57684192 139.599658,1.45027508 C137.970665,1.5338203 136.674465,1.57684192 135.337186,1.57684192 C133.997965,1.57684192 132.704263,1.5338203 131.07416,1.45027508 C130.741922,1.57684192 130.699456,2.28572722 130.992003,2.49583927 L131.786931,2.62074075 C133.58357,2.91301022 133.748995,3.07982308 133.748995,5.96338197 L133.748995,15.323499 C133.748995,18.2067804 133.58357,18.3744259 131.786931,18.6678056 L130.992003,18.7924295 C130.699456,19.0019865 130.741922,19.7114269 131.07416,19.837161 C132.704263,19.7541709 133.997965,19.7114269 135.337186,19.7114269 C136.633941,19.7114269 138.009801,19.7541709 139.599658,19.837161 C139.933561,19.7114269 139.97464,19.0019865 139.68348,18.7924295 L138.888829,18.6678056 C137.093579,18.3744259 136.926488,18.2067804 136.926488,15.323499 Z M159.606932,19.837161 C160.06768,19.0422325 160.653051,16.9541573 160.860388,15.1988751 C160.737152,14.8219502 160.06768,14.7389601 159.77541,15.0317847 C158.561923,18.3744259 157.016475,18.4996049 154.467653,18.4996049 C152.295199,18.4996049 151.626283,18.2067804 151.250745,17.8309657 C150.873821,17.4143498 150.791941,16.2422188 150.791941,14.9479619 L150.791941,5.96338197 C150.791941,3.07982308 150.999832,3.03929949 152.755114,2.62074075 L153.29802,2.49583927 C153.592232,2.28572722 153.549765,1.57684192 153.213642,1.45027508 C151.836395,1.5338203 150.53964,1.57684192 149.202361,1.57684192 C147.864805,1.57684192 146.570826,1.5338203 144.940445,1.45027508 C144.608207,1.57684192 144.564908,2.28572722 144.857177,2.49583927 L145.650996,2.62074075 C147.449022,2.91301022 147.614447,3.07982308 147.614447,5.96338197 L147.614447,15.323499 C147.614447,18.2067804 147.449022,18.3744259 145.650996,18.6678056 L144.857177,18.7924295 C144.564908,19.0019865 144.608207,19.7114269 144.940445,19.837161 C146.570826,19.7541709 147.864805,19.7114269 149.202361,19.7114269 L152.630213,19.7114269 C153.716023,19.7114269 154.802389,19.7114269 155.930665,19.7541709 C157.101131,19.7541709 158.311843,19.7949721 159.606932,19.837161 Z M178.876178,19.837161 C179.334705,19.0422325 179.920632,16.9541573 180.127691,15.1988751 C180.004454,14.8219502 179.334705,14.7389601 179.043268,15.0317847 C177.830058,18.3744259 176.285443,18.4996049 173.733845,18.4996049 C171.562224,18.4996049 170.893863,18.2067804 170.518603,17.8309657 C170.141956,17.4143498 170.059798,16.2422188 170.059798,14.9479619 L170.059798,5.96338197 C170.059798,3.07982308 170.267968,3.03929949 172.022139,2.62074075 L172.567265,2.49583927 C172.856204,2.28572722 172.816513,1.57684192 172.481499,1.45027508 C171.103142,1.5338203 169.807497,1.57684192 168.469941,1.57684192 C167.132108,1.57684192 165.837296,1.5338203 164.207193,1.45027508 C163.875232,1.57684192 163.8311,2.28572722 164.12559,2.49583927 L164.918576,2.62074075 C166.714937,2.91301022 166.881194,3.07982308 166.881194,5.96338197 L166.881194,15.323499 C166.881194,18.2067804 166.714937,18.3744259 164.918576,18.6678056 L164.12559,18.7924295 C163.8311,19.0019865 163.875232,19.7114269 164.207193,19.837161 C165.837296,19.7541709 167.132108,19.7114269 168.469941,19.7114269 L171.89696,19.7114269 C172.982216,19.7114269 174.069414,19.7114269 175.198801,19.7541709 C176.368711,19.7541709 177.579423,19.7949721 178.876178,19.837161 Z M199.861292,15.1988751 C199.736113,14.8219502 199.066641,14.7389601 198.774649,15.0317847 C197.56255,18.3744259 196.015437,18.4996049 193.34421,18.4996049 C190.96109,18.4996049 190.209183,18.3314043 189.834201,17.9161762 C189.456721,17.4557061 189.375396,16.160339 189.375396,14.9049403 L189.375396,11.8989779 C189.375396,11.0618605 189.375396,10.936959 190.165884,10.936959 L192.130168,10.936959 C194.345087,10.936959 194.554644,11.2708623 194.888825,12.5240405 L195.097272,13.3192466 C195.307662,13.6109609 195.931336,13.568772 196.141448,13.2357014 C196.059013,12.0244345 196.059013,11.2708623 196.059013,10.2266859 C196.059013,9.26383424 196.059013,8.51248243 196.141448,7.30177074 C195.931336,6.96592453 195.307662,6.92484582 195.097272,7.21822552 L194.888825,8.0142643 C194.554644,9.26383424 194.345087,9.59912533 192.130168,9.59912533 L190.165884,9.59912533 C189.375396,9.59912533 189.375396,9.51641279 189.375396,8.76589366 L189.375396,4.12455459 C189.375396,2.82974256 189.413422,2.78783118 190.87699,2.78783118 L192.716095,2.78783118 C193.719747,2.78783118 195.600209,2.78783118 196.26857,3.79037374 C196.518651,4.16813133 196.768454,4.71075888 197.019922,5.79851201 C197.270835,6.0913366 197.939475,6.0474823 198.105177,5.713579 C197.898396,3.9147201 197.688561,1.95293416 197.64554,1.45027508 C197.270835,1.5338203 195.600209,1.57684192 193.759993,1.57684192 L187.826895,1.57684192 C187.157979,1.57684192 186.489339,1.57684192 185.821255,1.5338203 C185.195082,1.5338203 184.568632,1.4932967 183.939961,1.45027508 C183.606336,1.61764307 183.565257,2.32791616 183.857804,2.49583927 L184.442065,2.62074075 C186.029424,2.95408893 186.197903,3.07982308 186.197903,5.96338197 L186.197903,15.323499 C186.197903,18.2067804 186.029424,18.457416 184.234174,18.6678056 L183.104232,18.7924295 C182.813628,19.0019865 182.854151,19.7114269 183.188887,19.837161 C185.195082,19.7541709 186.489339,19.7114269 187.826895,19.7114269 L191.503162,19.7114269 C192.631994,19.7114269 193.759993,19.7114269 194.929904,19.7541709 C196.100925,19.7541709 197.312469,19.7949721 198.607281,19.837161 C199.066641,19.0422325 199.651735,16.9541573 199.861292,15.1988751 Z" id="Fill-3"></path>
            <path d="M180.883206,31.0952255 C180.381934,31.1243692 179.970037,31.1396349 179.514841,31.1396349 C179.057979,31.1396349 178.631371,31.1243692 178.100401,31.0952255 C177.984936,31.1546231 177.968005,31.3583513 178.071257,31.4621583 L178.336881,31.4921347 C178.689381,31.5348787 178.955282,31.6381306 178.955282,31.727227 C178.955282,31.9043095 178.409601,32.9049092 177.999369,33.6701389 C177.557773,34.5244651 177.070657,35.3765707 176.61324,36.1578989 C176.040081,35.1423111 175.496066,33.9798946 174.951496,32.8901986 C174.87822,32.7430924 174.495189,31.9043095 174.495189,31.7574809 C174.495189,31.6381306 174.598996,31.5803984 175.112757,31.4921347 L175.304828,31.4621583 C175.391426,31.3733395 175.391426,31.1396349 175.260141,31.0952255 C174.892376,31.1243692 174.361683,31.1396349 173.68555,31.1396349 C172.978885,31.1396349 172.44958,31.1243692 171.978563,31.0952255 C171.875033,31.1546231 171.8606,31.3583513 171.948864,31.4621583 L172.361316,31.5348787 C172.80208,31.6087094 173.024127,31.6836503 173.523178,32.6531633 L175.260141,36.0404915 C175.688414,36.8651189 175.730603,37.0555242 175.730603,37.8646083 L175.730603,38.6162376 C175.730603,40.1899963 175.700349,40.3970552 174.848244,40.485874 L174.392492,40.5300059 C174.303673,40.6177145 174.333094,40.853362 174.421913,40.8972162 C175.201021,40.8666848 175.730603,40.853362 176.350392,40.853362 C176.938817,40.853362 177.439811,40.8666848 178.350204,40.8972162 C178.44041,40.853362 178.469276,40.6177145 178.38129,40.5300059 L177.822009,40.485874 C177.02597,40.4273091 176.938817,40.1899963 176.938817,38.6162376 L176.938817,37.851563 C176.938817,36.71718 176.968238,36.5700738 177.630494,35.4670549 L178.558095,33.8616545 C179.293904,32.5965413 179.734112,31.6547841 180.499619,31.5348787 L180.912349,31.4621583 C181.015324,31.3733395 180.999503,31.1687786 180.883206,31.0952255 Z M162.985934,30.7699265 C162.955402,30.7119167 162.794973,30.6974837 162.720865,30.7260722 C162.499373,31.1099361 162.366977,31.1390798 161.571771,31.1390798 L155.61175,31.1390798 C154.934507,31.1390798 154.447946,31.154068 154.360237,30.6833282 C154.316661,30.6397514 154.12459,30.6525191 154.080736,30.6833282 C153.977206,31.2720305 153.757657,32.2132325 153.521177,32.8743777 C153.580574,32.993728 153.786523,33.0689465 153.902543,32.9779072 C154.066858,32.6109744 154.212854,32.2876183 154.566741,31.963152 C154.934507,31.6242527 155.743868,31.5945539 156.377257,31.5945539 L157.184954,31.5945539 C157.62766,31.5945539 157.62766,31.6092645 157.62766,32.0650161 L157.62766,38.6451037 C157.62766,40.1913841 157.554384,40.410378 156.715602,40.485874 L156.184909,40.5294508 C156.068057,40.603559 156.097756,40.853362 156.184909,40.8980489 C157.127777,40.867795 157.641538,40.853362 158.231906,40.853362 C158.820886,40.853362 159.320214,40.867795 160.159274,40.8980489 C160.247538,40.853362 160.276404,40.5880157 160.188418,40.5294508 L159.717678,40.485874 C158.863907,40.3970552 158.834208,40.1913841 158.834208,38.6451037 L158.834208,32.0958252 C158.834208,31.6092645 158.820886,31.5945539 159.261371,31.5945539 L160.306936,31.5945539 C161.115465,31.5945539 161.675856,31.7130715 162.016421,31.963152 C162.234582,32.1238586 162.337834,32.6698169 162.381133,33.0381374 C162.455796,33.1266787 162.706432,33.1266787 162.765552,33.0078835 C162.720865,32.566565 162.823284,31.3733395 162.985934,30.7699265 Z M143.297852,38.6162376 L143.297852,33.375649 C143.297852,31.8160458 143.326995,31.566798 144.194644,31.491302 L144.563243,31.462991 C144.651506,31.4035934 144.623195,31.1390798 144.532434,31.0946704 C143.798013,31.1238141 143.297852,31.1390798 142.709149,31.1390798 C142.091581,31.1390798 141.590032,31.1238141 140.855056,31.0946704 C140.766515,31.1390798 140.735984,31.4035934 140.82508,31.462991 L141.192013,31.491302 C142.061327,31.566798 142.091581,31.8160458 142.091581,33.375649 L142.091581,38.6162376 C142.091581,40.1766735 142.061327,40.3826221 141.192013,40.485874 L140.82508,40.5286181 C140.735984,40.6185472 140.766515,40.853362 140.855056,40.8972162 C141.590032,40.867795 142.091581,40.853362 142.709149,40.853362 C143.297852,40.853362 143.798013,40.867795 144.532434,40.8972162 C144.623195,40.853362 144.651506,40.589681 144.563243,40.5286181 L144.194644,40.485874 C143.326995,40.3826221 143.297852,40.1766735 143.297852,38.6162376 Z M127.598013,32.993728 C127.598013,32.3170396 127.906936,31.3602942 129.35052,31.3602942 C130.763017,31.3602942 131.160481,32.3170396 131.351719,33.0225941 C131.424717,33.1116905 131.661197,33.0689465 131.720317,32.9779072 C131.720317,32.3611714 131.586534,31.5357114 131.455526,31.1829341 C131.336453,31.1829341 131.131615,31.1390798 130.939544,31.0946704 C130.557623,30.9775405 130.027763,30.9034323 129.570624,30.9034323 C127.658798,30.9034323 126.568547,32.0364276 126.568547,33.4356017 C126.568547,34.6427051 127.421486,35.4817655 128.157017,35.9661057 L129.556191,36.8798295 C130.630899,37.5703959 130.763017,38.2923265 130.763017,38.938761 C130.763017,39.8227859 130.157938,40.6332578 128.922801,40.6332578 C127.21637,40.6332578 126.613234,39.1905069 126.391465,38.4405429 C126.331234,38.3511689 126.11113,38.3814228 126.037855,38.4843972 C126.067554,39.1749636 126.258236,40.2196951 126.435041,40.544439 C126.715653,40.704868 127.495594,41.0895645 128.731563,41.0895645 C130.645887,41.0895645 131.865758,39.9843252 131.865758,38.3661571 C131.865758,36.9664278 130.955087,36.1129344 130.027763,35.5394978 L128.849803,34.8036893 C128.305233,34.4506344 127.598013,33.8463888 127.598013,32.993728 Z M117.084361,40.9419032 C117.15847,40.8825056 117.142649,40.763988 117.068818,40.7351219 C116.673574,40.7054231 116.304421,40.5452716 116.054618,40.3232246 C115.053463,39.4841641 114.273523,38.3073146 113.095841,36.408257 C113.021733,36.2914047 112.948457,36.144021 113.021733,36.0552021 C113.757541,35.7609898 114.862503,34.9952049 114.862503,33.5979736 C114.862503,32.566565 114.346798,31.9037544 113.640134,31.5368216 C112.96289,31.1687786 112.094686,31.0946704 111.183183,31.0946704 C109.739322,31.0946704 108.724566,31.1390798 107.900772,31.2129105 C107.782254,31.2720305 107.782254,31.5068453 107.885506,31.5798433 L108.356801,31.6389633 C108.959104,31.7130715 109.004068,31.963152 109.004068,33.3612159 L109.004068,38.6451037 C109.004068,40.1913841 108.974369,40.3826221 108.121154,40.485874 L107.752555,40.5294508 C107.664292,40.6338129 107.694823,40.853362 107.782254,40.8980489 C108.474208,40.867795 109.004068,40.853362 109.622469,40.853362 C110.211172,40.853362 110.711333,40.867795 111.374698,40.8980489 C111.462684,40.853362 111.490718,40.603559 111.40412,40.5294508 L111.094086,40.485874 C110.241703,40.3692993 110.211172,40.1913841 110.211172,38.6451037 L110.211172,36.7896228 C110.211172,36.4826428 110.241703,36.4670995 110.902016,36.4670995 C111.490718,36.4670995 111.726643,36.6125403 111.945914,36.9378393 C112.404164,37.6000947 113.007855,38.6162376 113.390053,39.1616408 C114.434785,40.6474133 115.184749,41.0157339 116.435984,41.0157339 C116.716596,41.0157339 116.952521,40.9852024 117.084361,40.9419032 Z M112.788861,35.6421946 C112.360587,35.9661057 111.799918,36.0271687 111.270336,36.0271687 C110.519817,36.0271687 110.300268,35.9958045 110.254471,35.9525054 C110.211172,35.8931078 110.211172,35.7304583 110.211172,35.4659447 L110.211172,32.0222721 C110.211172,31.6092645 110.254471,31.550422 111.167639,31.550422 C112.800241,31.550422 113.523281,32.6531633 113.523281,33.8197432 C113.523281,34.8181223 113.184382,35.3338267 112.788861,35.6421946 Z M98.1334759,40.8980489 C98.3241588,40.5003071 98.6916467,39.3667568 98.7951762,38.8510524 C98.7368888,38.7194895 98.5314953,38.6756352 98.4274107,38.7480781 C98.0446571,39.5144181 97.645805,40.0298448 97.3821241,40.1766735 C97.0576578,40.3382127 96.6313274,40.3970552 95.4983322,40.3970552 C94.2037977,40.3970552 93.8937645,40.2344057 93.7175146,40.0578783 C93.4807569,39.8072427 93.4380128,39.3073592 93.4380128,38.5268637 L93.4380128,36.4521113 C93.4380128,36.0693576 93.4807569,36.0552021 93.9229081,36.0552021 L94.7766792,36.0552021 C95.351226,36.0552021 95.7040033,36.0693576 95.9113397,36.130143 C96.204997,36.2023083 96.3068611,36.4229676 96.3659811,36.6880363 L96.4986543,37.2625831 C96.5735952,37.3500142 96.8236757,37.3500142 96.8814079,37.2467623 C96.8814079,36.9220184 96.8236757,36.3646802 96.8236757,35.8342653 C96.8236757,35.2760944 96.8814079,34.7004374 96.8814079,34.3493254 C96.8236757,34.2455184 96.5735952,34.2455184 96.4986543,34.3329495 L96.3806918,34.9358073 C96.3068611,35.3063484 96.204997,35.3923916 96.0276369,35.4520668 C95.8511095,35.5095214 95.3953578,35.5394978 94.7766792,35.5394978 L93.9229081,35.5394978 C93.4807569,35.5394978 93.4380128,35.5394978 93.4380128,35.1281556 L93.4380128,32.184644 C93.4380128,31.6248078 93.4380128,31.5945539 93.8793314,31.5945539 L94.9393286,31.5945539 C95.5874286,31.5945539 96.0578908,31.6092645 96.3659811,31.6842054 C97.1320436,31.8754434 97.2644391,32.3908702 97.485376,33.0803264 C97.5583739,33.1708106 97.7945765,33.1411118 97.853419,33.0531256 C97.7945765,32.4050257 97.7057577,31.3447509 97.6169389,31.0946704 C97.4404114,31.1390798 96.5735952,31.1390798 95.6307277,31.1390798 L92.8629109,31.1390798 C92.2600531,31.1390798 91.7596145,31.1238141 91.1259476,31.0946704 C91.0371288,31.1390798 91.0090953,31.4030383 91.0970815,31.462991 L91.3335616,31.491302 C92.200933,31.5945539 92.2309094,31.8168785 92.2309094,33.3470604 L92.2309094,38.6451037 C92.2309094,40.1913841 92.1562461,40.410378 91.3182959,40.485874 L90.8314577,40.5294508 C90.743194,40.6185472 90.7717825,40.853362 90.8606014,40.8980489 C91.7299157,40.867795 92.2309094,40.853362 92.8629109,40.853362 L94.188532,40.853362 C95.4983322,40.853362 96.8078548,40.867795 98.1334759,40.8980489 Z M81.8213423,31.462991 C81.8957281,31.3883276 81.8957281,31.1546231 81.7921987,31.0946704 C81.3070258,31.1243692 80.8509966,31.1390798 80.3647135,31.1390798 C79.8043222,31.1390798 79.2467064,31.1243692 78.8336989,31.0946704 C78.7301694,31.1546231 78.7007482,31.3741721 78.8040001,31.462991 L79.0693463,31.491302 C79.5856058,31.5512547 79.7310466,31.668107 79.7310466,31.7724691 C79.7310466,31.8759985 79.7166136,32.0364276 79.5997613,32.3464608 C79.3496808,32.9784623 78.6718821,34.64215 78.2308411,35.6430272 C77.9060972,36.4229676 77.2727079,37.9384389 76.8169563,38.9107276 C76.0817029,37.2323292 75.4039042,35.5408856 74.7269382,33.8316782 C74.2706314,32.7133936 74.0205509,31.9179099 73.9914072,31.7724691 C74.0063954,31.6553393 74.1235252,31.5654102 74.6825287,31.491302 L74.9037431,31.462991 C75.0064399,31.3741721 74.9770187,31.1546231 74.874877,31.0946704 C74.2561983,31.1243692 73.7416042,31.1390798 73.0937819,31.1390798 C72.460115,31.1390798 71.9896528,31.1243692 71.561657,31.0946704 C71.4442496,31.1679459 71.4298166,31.3741721 71.533346,31.462991 L71.7981372,31.491302 C72.4306938,31.5654102 72.6516306,31.8759985 72.9913627,32.6989605 L75.5809867,39.0880877 C75.8457779,39.7053786 76.0966911,40.4264764 76.2573976,41.0440449 C76.3309507,41.0740212 76.4047814,41.0895645 76.4788896,41.0895645 C76.5380096,41.0895645 76.5957419,41.0740212 76.6407064,41.0440449 C76.8910645,40.2646596 77.5827411,38.5582278 78.171721,37.2037406 L78.9655393,35.3929467 C79.6286274,33.8907982 80.2031742,32.6989605 80.614794,32.0075614 C80.8063096,31.6997487 81.0266913,31.5215559 81.3805789,31.491302 L81.8213423,31.462991 Z M61.2392434,38.6162376 L61.2392434,33.375649 C61.2392434,31.8160458 61.2689422,31.566798 62.137979,31.491302 L62.5051894,31.462991 C62.5948409,31.4035934 62.5651421,31.1390798 62.4757681,31.0946704 C61.7407923,31.1238141 61.2392434,31.1390798 60.6510962,31.1390798 C60.0324176,31.1390798 59.5322565,31.1238141 58.796448,31.0946704 C58.7081843,31.1390798 58.6776528,31.4035934 58.7670268,31.462991 L59.1353474,31.491302 C60.003829,31.566798 60.0324176,31.8160458 60.0324176,33.375649 L60.0324176,38.6162376 C60.0324176,40.1766735 60.003829,40.3826221 59.1353474,40.485874 L58.7670268,40.5286181 C58.6776528,40.6185472 58.7081843,40.853362 58.796448,40.8972162 C59.5322565,40.867795 60.0324176,40.853362 60.6510962,40.853362 C61.2392434,40.853362 61.7407923,40.867795 62.4757681,40.8972162 C62.5651421,40.853362 62.5948409,40.589681 62.5051894,40.5286181 L62.137979,40.485874 C61.2689422,40.3826221 61.2392434,40.1766735 61.2392434,38.6162376 Z M49.7455315,31.462991 C49.8335177,31.3733395 49.8335177,31.1687786 49.7155552,31.0946704 C49.2165043,31.1243692 48.8331956,31.1396349 48.2000838,31.1396349 C47.6396925,31.1396349 47.1403642,31.1243692 46.4636757,31.0946704 C46.3451581,31.1396349 46.330725,31.3733395 46.4331442,31.462991 L46.6837799,31.491302 C47.2724822,31.566798 47.5089623,31.6547841 47.5969485,31.7871797 C47.8750624,32.2284983 47.8908833,34.1414339 47.8908833,34.8339432 L47.8908833,37.9834035 C47.8908833,38.2923265 47.8908833,38.5268637 47.8323184,38.6018046 L47.8028971,38.6018046 C47.1101102,37.8943071 46.375412,37.085223 45.3739796,35.9380723 L43.946772,34.3329495 C43.4754771,33.7875463 41.7232481,31.844912 41.4290357,31.0946704 C41.2372426,31.1243692 40.9868845,31.1396349 40.7517921,31.1396349 C40.4872786,31.1396349 39.7070606,31.1396349 39.088382,31.0946704 C38.9712521,31.154068 38.9712521,31.3733395 39.0595158,31.462991 L39.3093188,31.491302 C39.6632063,31.5368216 40.0168163,31.6389633 40.2224874,31.844912 C40.5314104,32.184644 40.5469537,32.4930119 40.5469537,32.9049092 L40.5469537,37.1596088 C40.5469537,37.8640531 40.5605541,39.660414 40.3551605,40.1913841 C40.2816074,40.3532009 40.0448497,40.4564528 39.7070606,40.485874 L39.3093188,40.5294508 C39.2216102,40.6185472 39.2360433,40.8239407 39.3395727,40.8980489 C39.8538893,40.867795 40.2519086,40.853362 40.8694771,40.853362 C41.4140475,40.853362 41.9291968,40.867795 42.5920073,40.8980489 C42.6949816,40.8239407 42.7094147,40.6474133 42.6217061,40.5294508 L42.1656769,40.485874 C41.7976339,40.4564528 41.5170219,40.3692993 41.4140475,40.2055396 C41.1786776,39.7647761 41.1492564,37.851563 41.1492564,37.1596088 L41.1492564,33.948808 C41.1492564,33.507767 41.1650773,33.1708106 41.2230871,32.993728 L41.2527859,32.993728 C41.562264,33.3176392 42.5639739,34.5250202 42.9597728,34.9807718 L46.375412,38.8671508 C47.6552358,40.3237797 48.0826765,40.8380962 48.2589263,41.0887319 C48.420188,41.0887319 48.5090068,41.0157339 48.5387056,40.9291355 C48.4945738,40.5452716 48.4945738,38.7933202 48.4945738,38.3511689 L48.4945738,34.8339432 C48.4945738,34.1558669 48.464875,32.3300848 48.7149555,31.8018903 C48.7740755,31.6836503 49.0677328,31.566798 49.5398604,31.491302 L49.7455315,31.462991 Z M30.0349674,31.4482804 C30.108243,31.3589064 30.1232311,31.1679459 30.0052686,31.0952255 C29.4748537,31.1243692 29.0784996,31.1390798 28.459821,31.1390798 C27.8861068,31.1390798 27.3409812,31.1243692 26.781145,31.0952255 C26.6931589,31.1546231 26.6631825,31.3447509 26.7517238,31.4482804 L27.1208771,31.4785343 C27.488365,31.5068453 27.7537112,31.6087094 27.8561305,31.7871797 C28.1070437,32.229331 28.1359098,33.9207746 28.1359098,34.8339432 L28.1359098,36.5256644 C28.1359098,38.7625111 27.3271033,40.4406319 25.1923982,40.4406319 C22.939453,40.4406319 22.2047547,38.8807512 22.2047547,36.5109538 L22.2047547,33.3326274 C22.2047547,31.8018903 22.234176,31.5512547 23.0871143,31.4785343 L23.4401692,31.4482804 C23.5281553,31.3883276 23.4998443,31.1390798 23.411303,31.0952255 C22.6893725,31.1243692 22.2047547,31.1390798 21.6016194,31.1390798 C21.0120844,31.1390798 20.5116458,31.1243692 19.7750046,31.0952255 C19.6870184,31.1390798 19.6581523,31.3883276 19.7466936,31.4482804 L20.1139039,31.4785343 C20.9679525,31.5512547 20.9965411,31.8018903 20.9965411,33.3326274 L20.9965411,36.8051661 C20.9965411,38.5582278 21.3651392,39.6315479 22.1450796,40.2796478 C22.8658999,40.8972162 23.8820429,41.0895645 24.8979082,41.0895645 C25.986494,41.0895645 27.075635,40.7054231 27.7087467,40.014024 C28.533374,39.131942 28.7396003,37.7763446 28.7396003,36.4965207 L28.7396003,34.8339432 C28.7396003,34.0104261 28.7246121,32.3159293 28.9449938,31.8304789 C29.0199347,31.6381306 29.313592,31.5068453 29.6813574,31.4785343 L30.0349674,31.4482804 Z" id="Fill-4"></path>
            <path d="M187.480502,39.4336484 L187.77749,39.4336484 C188.055049,39.4336484 188.227135,39.2945915 188.227135,39.0839243 C188.227135,38.8313457 188.024517,38.7369757 187.761114,38.7369757 C187.619281,38.7369757 187.524911,38.7505761 187.480502,38.7616785 L187.480502,39.4336484 Z M187.227923,38.587094 C187.360874,38.5621137 187.561272,38.5454601 187.744183,38.5454601 C188.024517,38.5454601 188.205208,38.5981963 188.327612,38.7036687 C188.418651,38.7838832 188.479714,38.9115602 188.479714,39.056446 C188.479714,39.3056938 188.307905,39.4722291 188.107785,39.5335696 L188.107785,39.5388432 C188.252393,39.5915794 188.34371,39.7281384 188.390617,39.9054985 C188.460285,40.1694569 188.504972,40.3554214 188.546606,40.4328603 L188.2857,40.4328603 C188.254891,40.3801241 188.210759,40.2249687 188.155248,39.9887661 C188.093907,39.733412 187.988435,39.6307152 187.755008,39.622666 L187.480502,39.622666 L187.480502,40.4328603 L187.227923,40.4328603 L187.227923,38.587094 Z M187.832724,38.1374486 C187.085258,38.1374486 186.477127,38.7458576 186.477127,39.493046 C186.477127,40.240512 187.085258,40.848921 187.832724,40.848921 C188.58019,40.848921 189.188322,40.240512 189.188322,39.493046 C189.188322,38.7458576 188.58019,38.1374486 187.832724,38.1374486 Z M187.832724,41.1936491 C186.894853,41.1936491 186.132121,40.4309174 186.132121,39.493046 C186.132121,38.5554522 186.894853,37.7927205 187.832724,37.7927205 C188.770318,37.7927205 189.53305,38.5554522 189.53305,39.493046 C189.53305,40.4309174 188.770318,41.1936491 187.832724,41.1936491 Z" id="Fill-5"></path>
        </g>
    </g>
</svg>