<?xml version="1.0" encoding="UTF-8"?>
<svg width="120px" height="109px" viewBox="0 0 120 109" version="1.1" xmlns="http://www.w3.org/2000/svg" xmlns:xlink="http://www.w3.org/1999/xlink">
    <!-- Generator: Sketch 49.3 (51167) - http://www.bohemiancoding.com/sketch -->
    <title>logo-md-blue</title>
    <desc>Created with Sketch.</desc>
    <defs></defs>
    <g id="Slices" stroke="none" stroke-width="1" fill="none" fill-rule="evenodd">
        <g id="logo-md-blue" fill-rule="nonzero">
            <path d="M0.892561983,66.8429752 L0.892561983,64.1652893 L15.4710744,64.1652893 C18.6446281,64.1652893 20.1322314,65.6528926 20.1322314,70.3140496 C20.1322314,73.4876033 19.338843,74.677686 17.9504132,75.3719008 C19.6363636,75.9669421 20.4297521,77.1570248 20.4297521,80.8264463 C20.4297521,85.8842975 18.9421488,87.3719008 15.768595,87.3719008 L0.892561983,87.3719008 L0.892561983,84.6942149 L4.0661157,84.6942149 L4.0661157,66.8429752 L0.892561983,66.8429752 Z M15.0743802,73.8842975 C16.4628099,73.8842975 16.9586777,73.3884298 16.9586777,70.4132231 C16.9586777,67.4380165 16.4628099,66.9421488 15.0743802,66.9421488 L7.23966942,66.9421488 L7.23966942,73.8842975 L15.0743802,73.8842975 Z M15.2727273,84.3966942 C16.661157,84.3966942 17.1570248,83.9008264 17.1570248,80.5289256 C17.1570248,77.1570248 16.661157,76.661157 15.2727273,76.661157 L7.23966942,76.661157 L7.23966942,84.3966942 L15.2727273,84.3966942 Z" id="Shape" fill="#0B4668"></path>
            <path d="M25.2892562,82.9090909 C25.2892562,84.1983471 25.785124,84.6942149 27.0743802,84.6942149 L31.5371901,84.6942149 C32.8264463,84.6942149 33.322314,84.1983471 33.322314,82.9090909 L33.322314,81.6198347 L36.2975207,81.6198347 L36.2975207,82.8099174 C36.2975207,85.785124 34.9090909,87.2727273 31.8347107,87.2727273 L26.677686,87.2727273 C23.7024793,87.2727273 22.214876,85.8842975 22.214876,82.8099174 L22.214876,73.785124 C22.214876,70.8099174 23.6033058,69.322314 26.677686,69.322314 L31.8347107,69.322314 C34.8099174,69.322314 36.2975207,70.7107438 36.2975207,73.785124 L36.2975207,79.0413223 L25.2892562,79.0413223 L25.2892562,82.9090909 Z M27.0743802,72 C25.785124,72 25.2892562,72.4958678 25.2892562,73.785124 L25.2892562,76.8595041 L33.322314,76.8595041 L33.322314,73.785124 C33.322314,72.4958678 32.8264463,72 31.5371901,72 L27.0743802,72 Z" id="Shape" fill="#0B4668"></path>
            <path d="M49.785124,72.2975207 L48.5950413,72.2975207 C46.5123967,72.2975207 45.0247934,73.0909091 43.338843,74.0826446 L43.338843,84.892562 L46.8099174,84.892562 L46.8099174,87.2727273 L37.4876033,87.2727273 L37.4876033,84.892562 L40.2644628,84.892562 L40.2644628,71.9008264 L37.4876033,71.9008264 L37.4876033,69.4214876 L43.338843,69.4214876 L43.338843,72.0991736 C44.8264463,70.7107438 46.214876,69.4214876 48.7933884,69.4214876 L49.6859504,69.4214876 L49.785124,72.2975207 Z" id="Shape" fill="#0B4668"></path>
            <g id="Group" transform="translate(50.578512, 68.429752)" fill="#0B4668">
                <path d="M3.57024793,14.4793388 C3.57024793,15.768595 4.0661157,16.2644628 5.3553719,16.2644628 L9.81818182,16.2644628 C11.107438,16.2644628 11.6033058,15.768595 11.6033058,14.4793388 L11.6033058,13.1900826 L14.5785124,13.1900826 L14.5785124,14.3801653 C14.5785124,17.3553719 13.1900826,18.8429752 10.1157025,18.8429752 L4.95867769,18.8429752 C1.98347107,18.8429752 0.495867769,17.4545455 0.495867769,14.3801653 L0.495867769,5.3553719 C0.495867769,2.38016529 1.88429752,0.892561983 4.95867769,0.892561983 L10.1157025,0.892561983 C13.0909091,0.892561983 14.5785124,2.28099174 14.5785124,5.3553719 L14.5785124,10.6115702 L3.57024793,10.6115702 L3.57024793,14.4793388 Z M5.3553719,3.57024793 C4.0661157,3.57024793 3.57024793,4.0661157 3.57024793,5.3553719 L3.57024793,8.42975207 L11.6033058,8.42975207 L11.6033058,5.3553719 C11.6033058,4.0661157 11.107438,3.57024793 9.81818182,3.57024793 L5.3553719,3.57024793 Z" id="Shape"></path>
                <path d="M33.8181818,18.8429752 L28.1652893,18.8429752 L28.1652893,16.2644628 C26.7768595,17.9504132 25.2892562,18.9421488 22.0165289,18.9421488 C18.3471074,18.9421488 16.9586777,17.4545455 16.9586777,13.6859504 C16.9586777,9.91735537 18.5454545,8.82644628 21.5206612,8.52892562 C23.107438,8.33057851 25.4876033,8.1322314 28.1652893,8.03305785 L28.1652893,5.3553719 C28.1652893,4.0661157 27.6694215,3.57024793 26.3801653,3.57024793 L22.4132231,3.57024793 C21.1239669,3.57024793 20.6280992,4.0661157 20.6280992,5.3553719 L20.6280992,6.04958678 L17.6528926,6.04958678 L17.6528926,5.45454545 C17.6528926,2.47933884 19.0413223,0.991735537 22.1157025,0.991735537 L26.7768595,0.991735537 C29.7520661,0.991735537 31.2396694,2.38016529 31.2396694,5.45454545 L31.2396694,16.4628099 L33.9173554,16.4628099 L33.8181818,18.8429752 Z M21.9173554,10.8099174 C20.5289256,11.0082645 20.0330579,11.4049587 20.0330579,13.4876033 C20.0330579,15.6694215 20.5289256,16.2644628 22.4132231,16.2644628 C25.0909091,16.2644628 26.4793388,15.5702479 28.1652893,14.3801653 L28.1652893,10.0165289 L21.9173554,10.8099174 Z" id="Shape"></path>
            </g>
            <path d="M104.429752,87.2727273 L96.1983471,87.2727273 L96.1983471,84.892562 L98.7768595,84.892562 L98.7768595,73.785124 C98.7768595,72.4958678 98.2809917,72 96.4958678,72 C93.8181818,72 92.5289256,72.5950413 90.7438017,73.785124 L90.7438017,84.892562 L93.322314,84.892562 L93.322314,87.2727273 L84.892562,87.2727273 L84.892562,84.892562 L87.6694215,84.892562 L87.6694215,71.8016529 L84.892562,71.8016529 L84.892562,69.4214876 L90.7438017,69.4214876 L90.7438017,71.9008264 C92.3305785,70.3140496 93.6198347,69.2231405 96.7933884,69.2231405 C100.363636,69.2231405 101.752066,70.6115702 101.752066,73.6859504 L101.752066,84.7933884 L104.429752,84.7933884 L104.429752,87.2727273 Z" id="Shape" fill="#0B4668"></path>
            <path d="M116.132231,73.6859504 C116.132231,72.3966942 115.636364,71.9008264 114.347107,71.9008264 L110.677686,71.9008264 C109.38843,71.9008264 108.892562,72.3966942 108.892562,74.1818182 C108.892562,75.768595 109.38843,76.0661157 110.578512,76.2644628 L115.636364,77.0578512 C118.31405,77.553719 119.504132,78.5454545 119.504132,81.8181818 C119.504132,85.6859504 118.115702,87.1735537 115.041322,87.1735537 L109.983471,87.1735537 C107.008264,87.1735537 105.520661,85.785124 105.520661,82.7107438 L105.520661,81.6198347 L108.495868,81.6198347 L108.495868,82.8099174 C108.495868,84.0991736 108.991736,84.5950413 110.280992,84.5950413 L114.644628,84.5950413 C115.933884,84.5950413 116.429752,84.0991736 116.429752,82.0165289 C116.429752,80.1322314 115.933884,79.8347107 114.743802,79.6363636 L109.68595,78.8429752 C107.008264,78.3471074 105.818182,77.3553719 105.818182,74.3801653 C105.818182,70.7107438 107.206612,69.322314 110.280992,69.322314 L114.644628,69.322314 C117.619835,69.322314 119.107438,70.7107438 119.107438,73.785124 L119.107438,74.5785124 L116.132231,74.5785124 C116.132231,74.5785124 116.132231,73.6859504 116.132231,73.6859504 Z" id="Shape" fill="#0B4668"></path>
            <path d="M19.7355372,108.099174 L15.768595,108.099174 L15.768595,106.31405 C14.7768595,107.504132 13.785124,108.198347 11.4049587,108.198347 C8.82644628,108.198347 7.83471074,107.107438 7.83471074,104.528926 C7.83471074,101.950413 8.92561983,101.157025 11.0082645,100.859504 C12.0991736,100.760331 13.785124,100.561983 15.6694215,100.46281 L15.6694215,98.5785124 C15.6694215,97.6859504 15.2727273,97.2892562 14.3801653,97.2892562 L11.5041322,97.2892562 C10.6115702,97.2892562 10.214876,97.6859504 10.214876,98.5785124 L10.214876,99.0743802 L8.23140496,99.0743802 L8.23140496,98.5785124 C8.23140496,96.4958678 9.2231405,95.4049587 11.4049587,95.4049587 L14.7768595,95.4049587 C16.8595041,95.4049587 17.9504132,96.3966942 17.9504132,98.5785124 L17.9504132,106.31405 L19.8347107,106.31405 L19.8347107,108.099174 L19.7355372,108.099174 Z M11.3057851,102.446281 C10.3140496,102.545455 9.91735537,102.842975 9.91735537,104.330579 C9.91735537,105.818182 10.3140496,106.31405 11.6033058,106.31405 C13.4876033,106.31405 14.4793388,105.818182 15.6694215,105.024793 L15.6694215,101.950413 L11.3057851,102.446281 Z" id="Shape" fill="#2A89C9"></path>
            <path d="M23.4049587,104.92562 C23.4049587,105.818182 23.8016529,106.214876 24.6942149,106.214876 L26.4793388,106.214876 L26.4793388,108.099174 L24.4958678,108.099174 C22.4132231,108.099174 21.322314,107.107438 21.322314,104.92562 L21.322314,97.1900826 L19.4380165,97.1900826 L19.4380165,95.4049587 L21.322314,95.4049587 L21.322314,92.3305785 L23.4049587,92.3305785 L23.4049587,95.4049587 L26.3801653,95.4049587 L26.3801653,97.1900826 L23.4049587,97.1900826 C23.4049587,97.1900826 23.4049587,104.92562 23.4049587,104.92562 Z" id="Shape" fill="#2A89C9"></path>
            <path d="M35.3057851,104.92562 C35.3057851,105.818182 35.7024793,106.214876 36.5950413,106.214876 L38.3801653,106.214876 L38.3801653,108.099174 L36.3966942,108.099174 C34.3140496,108.099174 33.2231405,107.107438 33.2231405,104.92562 L33.2231405,97.1900826 L31.338843,97.1900826 L31.338843,95.4049587 L33.2231405,95.4049587 L33.2231405,92.3305785 L35.3057851,92.3305785 L35.3057851,95.4049587 L38.2809917,95.4049587 L38.2809917,97.1900826 L35.3057851,97.1900826 C35.3057851,97.1900826 35.3057851,104.92562 35.3057851,104.92562 Z" id="Shape" fill="#2A89C9"></path>
            <path d="M53.1570248,108.099174 L47.3057851,108.099174 L47.3057851,106.413223 L49.0909091,106.413223 L49.0909091,98.5785124 C49.0909091,97.6859504 48.6942149,97.2892562 47.5041322,97.2892562 C45.6198347,97.2892562 44.6280992,97.6859504 43.4380165,98.5785124 L43.4380165,106.413223 L45.322314,106.413223 L45.322314,108.099174 L39.3719008,108.099174 L39.3719008,106.413223 L41.3553719,106.413223 L41.3553719,92.7272727 L39.3719008,92.7272727 L39.3719008,91.0413223 L43.4380165,91.0413223 L43.4380165,97.1900826 C44.5289256,96.0991736 45.4214876,95.3057851 47.7024793,95.3057851 C50.1818182,95.3057851 51.2727273,96.2975207 51.2727273,98.4793388 L51.2727273,106.31405 L53.1570248,106.31405 L53.1570248,108.099174 Z" id="Shape" fill="#2A89C9"></path>
            <path d="M56.231405,105.024793 C56.231405,105.917355 56.6280992,106.31405 57.5206612,106.31405 L60.6942149,106.31405 C61.5867769,106.31405 61.9834711,105.917355 61.9834711,105.024793 L61.9834711,104.132231 L64.0661157,104.132231 L64.0661157,105.024793 C64.0661157,107.107438 63.0743802,108.198347 60.892562,108.198347 L57.2231405,108.198347 C55.1404959,108.198347 54.0495868,107.206612 54.0495868,105.024793 L54.0495868,98.5785124 C54.0495868,96.4958678 55.0413223,95.4049587 57.2231405,95.4049587 L60.892562,95.4049587 C62.9752066,95.4049587 64.0661157,96.3966942 64.0661157,98.5785124 L64.0661157,102.247934 L56.3305785,102.247934 L56.231405,105.024793 Z M57.5206612,97.2892562 C56.6280992,97.2892562 56.231405,97.6859504 56.231405,98.5785124 L56.231405,100.760331 L61.8842975,100.760331 L61.8842975,98.5785124 C61.8842975,97.6859504 61.4876033,97.2892562 60.5950413,97.2892562 L57.5206612,97.2892562 Z" id="Shape" fill="#2A89C9"></path>
            <path d="M79.1404959,95.0082645 C79.1404959,94.1157025 78.7438017,93.7190083 77.8512397,93.7190083 L72.9917355,93.7190083 C72.0991736,93.7190083 71.7024793,94.1157025 71.7024793,95.0082645 L71.7024793,104.727273 C71.7024793,105.619835 72.0991736,106.016529 72.9917355,106.016529 L77.8512397,106.016529 C78.7438017,106.016529 79.1404959,105.619835 79.1404959,104.727273 L79.1404959,101.454545 L75.1735537,101.454545 L75.1735537,99.4710744 L81.4214876,99.4710744 L81.4214876,104.826446 C81.4214876,107.008264 80.3305785,108.099174 78.1487603,108.099174 L72.7933884,108.099174 C70.6115702,108.099174 69.5206612,107.008264 69.5206612,104.826446 L69.5206612,95.0082645 C69.5206612,92.8264463 70.6115702,91.7355372 72.7933884,91.7355372 L78.1487603,91.7355372 C80.3305785,91.7355372 81.4214876,92.8264463 81.4214876,95.0082645 L81.4214876,96.7933884 L79.1404959,96.7933884 L79.1404959,95.0082645 Z" id="Shape" fill="#2A89C9"></path>
            <path d="M94.7107438,108.099174 L90.7438017,108.099174 L90.7438017,106.31405 C89.7520661,107.504132 88.7603306,108.198347 86.3801653,108.198347 C83.8016529,108.198347 82.8099174,107.107438 82.8099174,104.528926 C82.8099174,101.950413 83.9008264,101.157025 85.9834711,100.859504 C87.0743802,100.760331 88.7603306,100.561983 90.6446281,100.46281 L90.6446281,98.5785124 C90.6446281,97.6859504 90.2479339,97.2892562 89.3553719,97.2892562 L86.4793388,97.2892562 C85.5867769,97.2892562 85.1900826,97.6859504 85.1900826,98.5785124 L85.1900826,99.0743802 L83.107438,99.0743802 L83.107438,98.5785124 C83.107438,96.4958678 84.0991736,95.4049587 86.2809917,95.4049587 L89.6528926,95.4049587 C91.7355372,95.4049587 92.8264463,96.3966942 92.8264463,98.5785124 L92.8264463,106.31405 L94.7107438,106.31405 L94.7107438,108.099174 Z M86.2809917,102.446281 C85.2892562,102.545455 84.892562,102.842975 84.892562,104.330579 C84.892562,105.818182 85.2892562,106.31405 86.5785124,106.31405 C88.4628099,106.31405 89.4545455,105.818182 90.6446281,105.024793 L90.6446281,101.950413 L86.2809917,102.446281 Z" id="Shape" fill="#2A89C9"></path>
            <path d="M98.4793388,104.92562 C98.4793388,105.818182 98.8760331,106.214876 99.768595,106.214876 L101.553719,106.214876 L101.553719,108.099174 L99.5702479,108.099174 C97.4876033,108.099174 96.3966942,107.107438 96.3966942,104.92562 L96.3966942,97.1900826 L94.5123967,97.1900826 L94.5123967,95.4049587 L96.3966942,95.4049587 L96.3966942,92.3305785 L98.4793388,92.3305785 L98.4793388,95.4049587 L101.454545,95.4049587 L101.454545,97.1900826 L98.4793388,97.1900826 C98.4793388,97.1900826 98.4793388,104.92562 98.4793388,104.92562 Z" id="Shape" fill="#2A89C9"></path>
            <path d="M104.92562,105.024793 C104.92562,105.917355 105.322314,106.31405 106.214876,106.31405 L109.38843,106.31405 C110.280992,106.31405 110.677686,105.917355 110.677686,105.024793 L110.677686,104.132231 L112.760331,104.132231 L112.760331,105.024793 C112.760331,107.107438 111.768595,108.198347 109.586777,108.198347 L105.917355,108.198347 C103.834711,108.198347 102.743802,107.206612 102.743802,105.024793 L102.743802,98.5785124 C102.743802,96.4958678 103.735537,95.4049587 105.917355,95.4049587 L109.586777,95.4049587 C111.669421,95.4049587 112.760331,96.3966942 112.760331,98.5785124 L112.760331,102.247934 L105.024793,102.247934 L104.92562,105.024793 Z M106.214876,97.2892562 C105.322314,97.2892562 104.92562,97.6859504 104.92562,98.5785124 L104.92562,100.760331 L110.578512,100.760331 L110.578512,98.5785124 C110.578512,97.6859504 110.181818,97.2892562 109.289256,97.2892562 L106.214876,97.2892562 Z" id="Shape" fill="#2A89C9"></path>
            <g id="Group" transform="translate(23.801653, 0.000000)">
                <path d="M72.2975207,9.81818182 L72.2975207,7.53719008 L67.8347107,7.53719008 L67.8347107,9.81818182 C57.4214876,9.61983471 50.1818182,8.03305785 40.9586777,0.79338843 L40.8595041,0.694214876 L37.8842975,0.694214876 L37.8842975,16.661157 L47.107438,16.661157 L47.107438,19.0413223 L37.8842975,19.0413223 L37.8842975,56.5289256 L67.8347107,56.5289256 L67.8347107,58.7107438 L72.2975207,58.7107438 L72.2975207,56.5289256 L70.4132231,56.5289256 L70.4132231,9.91735537 L72.2975207,9.91735537 L72.2975207,9.81818182 Z M46.214876,14.3801653 L41.1570248,14.3801653 L41.1570248,5.05785124 C42.9421488,6.24793388 44.6280992,7.33884298 46.214876,8.1322314 L46.214876,14.3801653 Z M46.214876,53.1570248 L41.1570248,53.1570248 L41.1570248,21.322314 L46.214876,21.322314 L46.214876,53.1570248 Z M52.4628099,53.1570248 L47.7024793,53.1570248 L47.7024793,28.7603306 L52.4628099,28.7603306 L52.4628099,53.1570248 Z M52.4628099,25.4876033 L47.7024793,25.4876033 L47.7024793,21.4214876 L50.0826446,21.4214876 L50.0826446,19.1404959 L50.0826446,16.7603306 L50.0826446,14.4793388 L47.7024793,14.4793388 L47.7024793,8.92561983 C49.3884298,9.71900826 50.8760331,10.4132231 52.4628099,10.9090909 L52.4628099,25.4876033 Z M60.4958678,53.1570248 L55.7355372,53.1570248 L55.7355372,28.7603306 L60.4958678,28.7603306 L60.4958678,53.1570248 Z M60.4958678,25.4876033 L55.7355372,25.4876033 L55.7355372,11.9008264 C57.322314,12.2975207 58.9090909,12.4958678 60.4958678,12.6942149 L60.4958678,25.4876033 Z M67.0413223,53.1570248 L61.9834711,53.1570248 L61.9834711,12.892562 C63.5702479,12.9917355 65.2561983,13.0909091 67.0413223,13.1900826 L67.0413223,53.1570248 Z" id="Shape" fill="#094668"></path>
                <path d="M2.7768595,9.81818182 L2.7768595,56.4297521 L0.892561983,56.4297521 L0.892561983,58.7107438 L5.3553719,58.7107438 L5.3553719,56.5289256 L35.3057851,56.5289256 L35.3057851,19.0413223 L26.0826446,19.0413223 L26.0826446,16.661157 L35.3057851,16.661157 L35.3057851,0.694214876 L32.3305785,0.694214876 L32.231405,0.79338843 C23.0082645,7.9338843 15.768595,9.61983471 5.3553719,9.81818182 L5.3553719,7.53719008 L0.892561983,7.53719008 L0.892561983,9.81818182 L2.7768595,9.81818182 Z M26.9752066,8.1322314 C28.5619835,7.23966942 30.2479339,6.24793388 32.0330579,5.05785124 L32.0330579,14.4793388 L26.9752066,14.4793388 L26.9752066,8.1322314 Z M26.9752066,21.322314 L32.0330579,21.322314 L32.0330579,53.1570248 L26.9752066,53.1570248 L26.9752066,21.322314 Z M20.7272727,28.7603306 L25.4876033,28.7603306 L25.4876033,53.1570248 L20.7272727,53.1570248 L20.7272727,28.7603306 Z M20.7272727,11.0082645 C22.214876,10.5123967 23.8016529,9.81818182 25.4876033,9.02479339 L25.4876033,14.4793388 L23.107438,14.4793388 L23.107438,16.7603306 L23.107438,19.1404959 L23.107438,21.4214876 L25.4876033,21.4214876 L25.4876033,25.4876033 L20.7272727,25.4876033 L20.7272727,11.0082645 Z M12.6942149,28.7603306 L17.4545455,28.7603306 L17.4545455,53.1570248 L12.6942149,53.1570248 L12.6942149,28.7603306 Z M12.6942149,12.7933884 C14.2809917,12.5950413 15.8677686,12.3966942 17.4545455,12 L17.4545455,25.4876033 L12.6942149,25.4876033 L12.6942149,12.7933884 Z M6.04958678,13.1900826 C7.83471074,13.1900826 9.52066116,13.0909091 11.107438,12.892562 L11.107438,53.1570248 L6.04958678,53.1570248 L6.04958678,13.1900826 Z" id="Shape" fill="#298ACA"></path>
            </g>
        </g>
    </g>
</svg>