<?xml version="1.0" encoding="UTF-8"?>
<svg width="120px" height="109px" viewBox="0 0 120 109" version="1.1" xmlns="http://www.w3.org/2000/svg" xmlns:xlink="http://www.w3.org/1999/xlink">
    <!-- Generator: Sketch 49.3 (51167) - http://www.bohemiancoding.com/sketch -->
    <title>logo-md-white</title>
    <desc>Created with Sketch.</desc>
    <defs></defs>
    <g id="Slices" stroke="none" stroke-width="1" fill="none" fill-rule="evenodd">
        <g id="logo-md-white" fill-rule="nonzero">
            <path d="M0,67.3064617 L0,64.5997675 L14.7063717,64.5997675 C17.8641815,64.5997675 19.3979749,66.1335609 19.3979749,70.8251641 C19.3979749,73.982974 18.5859666,75.2460979 17.2326195,75.8776599 C18.856636,76.5092219 19.6686443,77.6821227 19.6686443,81.2910482 C19.6686443,86.343544 18.1348509,87.8773374 14.9770411,87.8773374 L0,87.8773374 L0,85.1706432 L3.15780986,85.1706432 L3.15780986,67.3064617 L0,67.3064617 Z M14.1650328,74.4340897 C15.608603,74.4340897 16.0597187,73.8927508 16.0597187,70.9153872 C16.0597187,67.9380237 15.5183799,67.486908 14.1650328,67.486908 L6.31561973,67.486908 L6.31561973,74.4340897 C6.31561973,74.4340897 14.1650328,74.4340897 14.1650328,74.4340897 Z M14.4357022,84.9901969 C15.8792725,84.9901969 16.3303882,84.4488581 16.3303882,81.1106019 C16.3303882,77.7723458 15.7890493,77.231007 14.4357022,77.231007 L6.31561973,77.231007 L6.31561973,84.9901969 C6.31561973,84.9901969 14.4357022,84.9901969 14.4357022,84.9901969 Z" id="Shape" fill="#FFFFFF"></path>
            <path d="M24.5406938,83.5466267 C24.5406938,84.8097506 25.0820326,85.3510895 26.3451566,85.3510895 L30.7660904,85.3510895 C32.0292143,85.3510895 32.5705532,84.8097506 32.5705532,83.5466267 L32.5705532,82.1932796 L35.6381399,82.1932796 L35.6381399,83.4564036 C35.6381399,86.5239903 34.1945697,87.8773374 31.2172061,87.8773374 L25.984264,87.8773374 C22.9166773,87.8773374 21.5633302,86.4337671 21.5633302,83.4564036 L21.5633302,74.4340897 C21.5633302,71.3665029 23.0069004,70.0131559 25.984264,70.0131559 L31.2172061,70.0131559 C34.2847928,70.0131559 35.6381399,71.4567261 35.6381399,74.4340897 L35.6381399,79.6670317 L24.5406938,79.6670317 L24.5406938,83.5466267 Z M26.3451566,72.5394037 C25.0820326,72.5394037 24.5406938,73.0807426 24.5406938,74.3438665 L24.5406938,77.4114532 L32.5705532,77.4114532 L32.5705532,74.3438665 C32.5705532,73.0807426 32.0292143,72.5394037 30.7660904,72.5394037 L26.3451566,72.5394037 Z" id="Shape" fill="#FFFFFF"></path>
            <path d="M49.1716107,72.8100732 L47.9987099,72.8100732 C45.8333546,72.8100732 44.3897844,73.5318583 42.7657679,74.6145359 L42.7657679,85.5315358 L46.2844703,85.5315358 L46.2844703,87.9675605 L36.9012638,87.9675605 L36.9012638,85.5315358 L39.6981812,85.5315358 L39.6981812,72.4491806 L36.9012638,72.4491806 L36.9012638,70.0131559 L42.7657679,70.0131559 L42.7657679,72.6296269 C44.2093381,71.1860567 45.6529083,70.0131559 48.2693794,70.0131559 L49.1716107,70.0131559 L49.1716107,72.8100732 Z" id="Shape" fill="#FFFFFF"></path>
            <g id="Group" transform="translate(50.524958, 69.471817)" fill="#FFFFFF">
                <path d="M2.97736359,14.0748097 C2.97736359,15.3379336 3.51870242,15.8792725 4.78182637,15.8792725 L9.20276018,15.8792725 C10.4658841,15.8792725 11.007223,15.3379336 11.007223,14.0748097 L11.007223,12.7214626 L14.0748097,12.7214626 L14.0748097,13.9845865 C14.0748097,17.0521733 12.6312395,18.4055204 9.65387587,18.4055204 L4.42093381,18.4055204 C1.35334708,18.4055204 7.10542736e-15,16.9619501 7.10542736e-15,13.9845865 L7.10542736e-15,4.96227264 C7.10542736e-15,1.89468592 1.44357022,0.541338834 4.42093381,0.541338834 L9.65387587,0.541338834 C12.7214626,0.541338834 14.0748097,1.98490906 14.0748097,4.96227264 L14.0748097,10.1952147 L2.97736359,10.1952147 L2.97736359,14.0748097 Z M4.78182637,3.06758673 C3.51870242,3.06758673 2.97736359,3.60892556 2.97736359,4.87204951 L2.97736359,7.93963623 L11.007223,7.93963623 L11.007223,4.87204951 C11.007223,3.60892556 10.4658841,3.06758673 9.20276018,3.06758673 L4.78182637,3.06758673 Z" id="Shape"></path>
                <path d="M33.5630077,18.4055204 L27.8789499,18.4055204 L27.8789499,15.8792725 C26.5256029,17.5935121 24.9918095,18.4957435 21.7437765,18.4957435 C18.0446278,18.4957435 16.6912807,16.9619501 16.6912807,13.2628014 C16.6912807,9.56365273 18.2250741,8.39075193 21.2926608,8.02985937 C22.9166773,7.84941309 25.2624789,7.66896681 27.9691731,7.48852054 L27.9691731,4.78182637 C27.9691731,3.51870242 27.4278343,2.97736359 26.1647103,2.97736359 L22.1046691,2.97736359 C20.8415451,2.97736359 20.3002063,3.51870242 20.3002063,4.78182637 L20.3002063,5.41338834 L17.2326195,5.41338834 L17.2326195,4.78182637 C17.2326195,1.71423964 18.6761898,0.360892556 21.6535534,0.360892556 L26.4353797,0.360892556 C29.5029664,0.360892556 30.8563135,1.80446278 30.8563135,4.78182637 L30.8563135,15.8792725 L33.4727846,15.8792725 L33.5630077,18.4055204 Z M21.5633302,10.4658841 C20.2099831,10.6463304 19.6686443,11.007223 19.6686443,13.1725783 C19.6686443,15.3379336 20.2099831,15.9694956 22.1046691,15.9694956 C24.8113632,15.9694956 26.1647103,15.3379336 27.9691731,14.0748097 L27.9691731,9.65387587 L21.5633302,10.4658841 Z" id="Shape"></path>
            </g>
            <path d="M104.117502,87.8773374 L95.8169736,87.8773374 L95.8169736,85.4413126 L98.4334446,85.4413126 L98.4334446,74.3438665 C98.4334446,72.9905194 97.8921058,72.5394037 96.087643,72.5394037 C93.471172,72.5394037 92.0276018,73.1709657 90.3133621,74.3438665 L90.3133621,85.4413126 L92.9298332,85.4413126 L92.9298332,87.8773374 L84.4488581,87.8773374 L84.4488581,85.4413126 L87.2457754,85.4413126 L87.2457754,72.3589575 L84.4488581,72.3589575 L84.4488581,69.9229327 L90.3133621,69.9229327 L90.3133621,72.4491806 C91.9373786,70.9153872 93.2005026,69.8327096 96.4485356,69.8327096 C100.057461,69.8327096 101.501031,71.2762798 101.501031,74.3438665 L101.501031,85.5315358 L104.117502,85.5315358 C104.117502,85.5315358 104.117502,87.8773374 104.117502,87.8773374 Z" id="Shape" fill="#FFFFFF"></path>
            <path d="M115.84651,74.3438665 C115.84651,73.0807426 115.305172,72.5394037 114.042048,72.5394037 L110.342899,72.5394037 C109.079775,72.5394037 108.538436,73.0807426 108.538436,74.8852054 C108.538436,76.5092219 108.989552,76.7798913 110.252676,77.0505607 L115.395395,77.8625689 C118.102089,78.3136846 119.27499,79.3061392 119.27499,82.6443953 C119.27499,86.6142134 117.83142,87.9675605 114.854056,87.9675605 L109.80156,87.9675605 C106.733973,87.9675605 105.380626,86.5239903 105.380626,83.5466267 L105.380626,82.3737259 L108.35799,82.3737259 L108.35799,83.6368498 C108.35799,84.8999738 108.899329,85.4413126 110.162453,85.4413126 L114.583387,85.4413126 C115.84651,85.4413126 116.387849,84.8999738 116.387849,82.8248416 C116.387849,80.9301557 115.936734,80.6594863 114.67361,80.3888168 L109.530891,79.5768086 C106.824197,79.1256929 105.651296,78.1332384 105.651296,75.0656516 C105.651296,71.3665029 107.094866,70.0131559 110.07223,70.0131559 L114.493163,70.0131559 C117.56075,70.0131559 118.914097,71.4567261 118.914097,74.4340897 L118.914097,75.2460979 L115.936734,75.2460979 L115.936734,74.3438665 L115.84651,74.3438665 Z" id="Shape" fill="#FFFFFF"></path>
            <path d="M18.9468592,108.718882 L14.8868179,108.718882 L14.8868179,106.91442 C13.8943634,108.177544 12.8116857,108.809106 10.5561073,108.809106 C7.93963623,108.809106 6.9471817,107.726428 6.9471817,105.109957 C6.9471817,102.493486 8.02985937,101.681478 10.1952147,101.410808 C11.3681155,101.320585 12.992132,101.140139 14.8868179,101.049916 L14.8868179,99.1552297 C14.8868179,98.2529984 14.5259254,97.8921058 13.623694,97.8921058 L10.7365535,97.8921058 C9.83432215,97.8921058 9.47342959,98.2529984 9.47342959,99.1552297 L9.47342959,99.6063454 L7.3982974,99.6063454 L7.3982974,99.1552297 C7.3982974,96.9898744 8.39075193,95.9974199 10.5561073,95.9974199 L13.8943634,95.9974199 C16.0597187,95.9974199 17.0521733,96.9898744 17.0521733,99.1552297 L17.0521733,107.004643 L18.9468592,107.004643 L18.9468592,108.718882 Z M10.4658841,103.034825 C9.47342959,103.215271 9.11253704,103.395717 9.11253704,104.929511 C9.11253704,106.463304 9.47342959,106.91442 10.8267767,106.91442 C12.7214626,106.91442 13.7139171,106.463304 14.9770411,105.561073 L14.9770411,102.403263 L10.4658841,103.034825 Z" id="Shape" fill="#5AB9F8"></path>
            <path d="M22.5557847,105.561073 C22.5557847,106.463304 22.9166773,106.824197 23.8189087,106.824197 L25.6233715,106.824197 L25.6233715,108.718882 L23.6384624,108.718882 C21.4731071,108.718882 20.4806525,107.726428 20.4806525,105.561073 L20.4806525,97.8018827 L18.5859666,97.8018827 L18.5859666,95.9974199 L20.4806525,95.9974199 L20.4806525,92.9298332 L22.5557847,92.9298332 L22.5557847,95.9974199 L25.6233715,95.9974199 L25.6233715,97.8018827 L22.5557847,97.8018827 L22.5557847,105.561073 Z" id="Shape" fill="#5AB9F8"></path>
            <path d="M34.5554622,105.561073 C34.5554622,106.463304 34.9163548,106.824197 35.8185862,106.824197 L37.623049,106.824197 L37.623049,108.718882 L35.6381399,108.718882 C33.4727846,108.718882 32.48033,107.726428 32.48033,105.561073 L32.48033,97.8018827 L30.5856441,97.8018827 L30.5856441,95.9974199 L32.48033,95.9974199 L32.48033,92.9298332 L34.5554622,92.9298332 L34.5554622,95.9974199 L37.623049,95.9974199 L37.623049,97.8018827 L34.5554622,97.8018827 L34.5554622,105.561073 Z" id="Shape" fill="#5AB9F8"></path>
            <path d="M52.5098669,108.718882 L46.6453629,108.718882 L46.6453629,107.004643 L48.4498256,107.004643 L48.4498256,99.1552297 C48.4498256,98.2529984 48.0889331,97.8921058 46.8258091,97.8921058 C44.9311232,97.8921058 43.9386687,98.3432215 42.7657679,99.1552297 L42.7657679,107.004643 L44.6604538,107.004643 L44.6604538,108.718882 L38.7057266,108.718882 L38.7057266,107.004643 L40.6004125,107.004643 L40.6004125,93.2907257 L38.6155035,93.2907257 L38.6155035,91.5764861 L42.7657679,91.5764861 L42.7657679,97.8018827 C43.9386687,96.719205 44.8409001,95.9071967 47.0964785,95.9071967 C49.6227264,95.9071967 50.615181,96.8996513 50.615181,99.0650066 L50.615181,107.004643 L52.5098669,107.004643 C52.5098669,107.004643 52.5098669,108.718882 52.5098669,108.718882 Z" id="Shape" fill="#5AB9F8"></path>
            <path d="M55.5774536,105.651296 C55.5774536,106.553527 55.9383462,106.91442 56.8405776,106.91442 L59.9983874,106.91442 C60.9006188,106.91442 61.2615114,106.553527 61.2615114,105.651296 L61.2615114,104.749064 L63.4268667,104.749064 L63.4268667,105.651296 C63.4268667,107.816651 62.4344122,108.809106 60.2690568,108.809106 L56.5699081,108.809106 C54.4045528,108.809106 53.4120983,107.816651 53.4120983,105.651296 L53.4120983,99.2454529 C53.4120983,97.0800975 54.4045528,96.087643 56.5699081,96.087643 L60.2690568,96.087643 C62.4344122,96.087643 63.4268667,97.0800975 63.4268667,99.2454529 L63.4268667,102.944602 L55.5774536,102.944602 C55.5774536,102.944602 55.5774536,105.651296 55.5774536,105.651296 Z M56.8405776,97.8018827 C55.9383462,97.8018827 55.5774536,98.1627752 55.5774536,99.0650066 L55.5774536,101.230362 L61.2615114,101.230362 L61.2615114,99.0650066 C61.2615114,98.1627752 60.9006188,97.8018827 59.9983874,97.8018827 L56.8405776,97.8018827 Z" id="Shape" fill="#5AB9F8"></path>
            <path d="M78.7648003,95.6365273 C78.7648003,94.7342959 78.4039078,94.3734034 77.5016764,94.3734034 L72.6296269,94.3734034 C71.7273955,94.3734034 71.3665029,94.7342959 71.3665029,95.6365273 L71.3665029,105.380626 C71.3665029,106.282858 71.7273955,106.64375 72.6296269,106.64375 L77.5016764,106.64375 C78.4039078,106.64375 78.7648003,106.282858 78.7648003,105.380626 L78.7648003,102.04237 L74.7949822,102.04237 L74.7949822,100.057461 L81.0203788,100.057461 L81.0203788,105.470849 C81.0203788,107.726428 79.9377011,108.718882 77.7723458,108.718882 L72.4491806,108.718882 C70.1936021,108.718882 69.2011476,107.636205 69.2011476,105.470849 L69.2011476,95.6365273 C69.2011476,93.3809488 70.2838253,92.3884943 72.4491806,92.3884943 L77.7723458,92.3884943 C80.0279243,92.3884943 81.0203788,93.471172 81.0203788,95.6365273 L81.0203788,97.4409901 L78.7648003,97.4409901 L78.7648003,95.6365273 Z" id="Shape" fill="#5AB9F8"></path>
            <path d="M94.4636265,108.718882 L90.4035853,108.718882 L90.4035853,106.91442 C89.4111307,108.177544 88.3284531,108.809106 86.0728746,108.809106 C83.4564036,108.809106 82.463949,107.726428 82.463949,105.109957 C82.463949,102.493486 83.5466267,101.681478 85.711982,101.410808 C86.8848828,101.320585 88.5088993,101.140139 90.4035853,101.049916 L90.4035853,99.1552297 C90.4035853,98.2529984 90.0426927,97.8921058 89.1404613,97.8921058 L86.2533209,97.8921058 C85.3510895,97.8921058 84.9901969,98.2529984 84.9901969,99.1552297 L84.9901969,99.6063454 L82.8248416,99.6063454 L82.8248416,99.1552297 C82.8248416,96.9898744 83.8172961,95.9974199 85.9826515,95.9974199 L89.3209076,95.9974199 C91.4862629,95.9974199 92.4787175,96.9898744 92.4787175,99.1552297 L92.4787175,107.004643 L94.3734034,107.004643 L94.3734034,108.718882 L94.4636265,108.718882 Z M85.9826515,103.034825 C84.9901969,103.215271 84.6293044,103.395717 84.6293044,104.929511 C84.6293044,106.463304 84.9901969,106.91442 86.343544,106.91442 C88.2382299,106.91442 89.2306845,106.463304 90.4938084,105.561073 L90.4938084,102.403263 L85.9826515,103.034825 Z" id="Shape" fill="#5AB9F8"></path>
            <path d="M98.0725521,105.561073 C98.0725521,106.463304 98.4334446,106.824197 99.335676,106.824197 L101.140139,106.824197 L101.140139,108.718882 L99.1552297,108.718882 C96.9898744,108.718882 95.9974199,107.726428 95.9974199,105.561073 L95.9974199,97.8018827 L94.102734,97.8018827 L94.102734,95.9974199 L95.9974199,95.9974199 L95.9974199,92.9298332 L98.0725521,92.9298332 L98.0725521,95.9974199 L101.140139,95.9974199 L101.140139,97.8018827 L98.0725521,97.8018827 C98.0725521,97.8018827 98.0725521,105.561073 98.0725521,105.561073 Z" id="Shape" fill="#5AB9F8"></path>
            <path d="M104.568618,105.651296 C104.568618,106.553527 104.929511,106.91442 105.831742,106.91442 L108.989552,106.91442 C109.891783,106.91442 110.252676,106.553527 110.252676,105.651296 L110.252676,104.749064 L112.418031,104.749064 L112.418031,105.651296 C112.418031,107.816651 111.425577,108.809106 109.260221,108.809106 L105.561073,108.809106 C103.395717,108.809106 102.403263,107.816651 102.403263,105.651296 L102.403263,99.2454529 C102.403263,97.0800975 103.395717,96.087643 105.561073,96.087643 L109.260221,96.087643 C111.425577,96.087643 112.418031,97.0800975 112.418031,99.2454529 L112.418031,102.944602 L104.568618,102.944602 L104.568618,105.651296 Z M105.831742,97.8018827 C104.929511,97.8018827 104.568618,98.1627752 104.568618,99.0650066 L104.568618,101.230362 L110.252676,101.230362 L110.252676,99.0650066 C110.252676,98.1627752 109.891783,97.8018827 108.989552,97.8018827 L105.831742,97.8018827 Z" id="Shape" fill="#5AB9F8"></path>
            <g id="Group" transform="translate(22.555785, 0.000000)">
                <path d="M73.8025277,10.0147684 L73.8025277,7.66896681 L69.2913707,7.66896681 L69.2913707,9.92454529 C58.8254866,9.83432215 51.5174124,8.12008251 42.224429,0.90223139 L42.0439828,0.812008251 L39.0666192,0.812008251 L39.0666192,16.871727 L48.3596025,16.871727 L48.3596025,19.2175286 L39.1568423,19.2175286 L39.1568423,57.0210238 L69.2913707,57.0210238 L69.2913707,59.2766023 L73.8025277,59.2766023 L73.8025277,57.0210238 L71.9078418,57.0210238 L71.9078418,10.0147684 L73.8025277,10.0147684 Z M47.5475942,14.6161485 L42.4048753,14.6161485 L42.4048753,5.14271892 C44.2093381,6.40584287 45.9235777,7.3982974 47.4573711,8.30052879 L47.5475942,14.6161485 Z M47.5475942,53.5925446 L42.4950985,53.5925446 L42.4950985,21.5633302 L47.5475942,21.5633302 L47.5475942,53.5925446 Z M53.863214,53.5925446 L49.0813876,53.5925446 L49.0813876,29.0518508 L53.863214,29.0518508 L53.863214,53.5925446 Z M53.863214,25.7135946 L49.0813876,25.7135946 L49.0813876,21.5633302 L51.5174124,21.5633302 L51.5174124,19.3077517 L51.5174124,16.9619501 L51.5174124,14.7063717 L49.0813876,14.7063717 L49.0813876,9.20276018 C50.7054041,10.0147684 52.3294206,10.7365535 53.863214,11.2778924 L53.863214,25.7135946 Z M61.8930733,53.5925446 L57.111247,53.5925446 L57.111247,29.0518508 L61.8930733,29.0518508 L61.8930733,53.5925446 Z M61.8930733,25.7135946 L57.111247,25.7135946 L57.111247,12.0899006 C58.7352635,12.4507932 60.2690568,12.7214626 61.8930733,12.9019089 L61.8930733,25.7135946 Z M68.5695856,53.5925446 L63.4268667,53.5925446 L63.4268667,12.992132 C65.0508832,13.0823552 66.7651228,13.1725783 68.5695856,13.2628014 L68.5695856,53.5925446 Z" id="Shape" fill="#5AB9F8"></path>
                <path d="M2.52624789,10.0147684 L2.52624789,57.0210238 L0.631561973,57.0210238 L0.631561973,59.2766023 L5.14271892,59.2766023 L5.14271892,57.0210238 L35.2772473,57.0210238 L35.2772473,19.3077517 L25.984264,19.3077517 L25.984264,16.9619501 L35.2772473,16.9619501 L35.2772473,0.812008251 L32.2998838,0.812008251 L32.2096606,0.90223139 C22.9166773,8.12008251 15.608603,9.83432215 5.14271892,10.0147684 L5.14271892,7.66896681 L0.631561973,7.66896681 L0.631561973,9.92454529 L2.52624789,9.92454529 C2.52624789,9.92454529 2.52624789,10.0147684 2.52624789,10.0147684 Z M26.8864954,8.30052879 C28.5105119,7.3982974 30.1345284,6.40584287 31.9389912,5.14271892 L31.9389912,14.6161485 L26.8864954,14.6161485 L26.8864954,8.30052879 Z M26.8864954,21.5633302 L31.9389912,21.5633302 L31.9389912,53.5925446 L26.8864954,53.5925446 L26.8864954,21.5633302 Z M20.5708757,29.0518508 L25.3527021,29.0518508 L25.3527021,53.5925446 L20.5708757,53.5925446 L20.5708757,29.0518508 Z M20.5708757,11.0974461 C22.1046691,10.5561073 23.6384624,9.92454529 25.3527021,9.0223139 L25.3527021,14.5259254 L22.9166773,14.5259254 L22.9166773,16.7815039 L22.9166773,19.1273055 L22.9166773,21.3828839 L25.3527021,21.3828839 L25.3527021,25.5331483 L20.5708757,25.5331483 L20.5708757,11.0974461 Z M12.5410163,29.0518508 L17.3228427,29.0518508 L17.3228427,53.6827677 L12.5410163,53.6827677 L12.5410163,29.0518508 Z M12.5410163,12.9019089 C14.1650328,12.7214626 15.6988262,12.4507932 17.3228427,12.0899006 L17.3228427,25.7135946 L12.5410163,25.7135946 L12.5410163,12.9019089 Z M5.86450403,13.3530246 C7.66896681,13.2628014 9.29298332,13.2628014 11.007223,13.0823552 L11.007223,53.6827677 L5.86450403,53.6827677 L5.86450403,13.3530246 Z" id="Shape" fill="#FFFFFF"></path>
            </g>
        </g>
    </g>
</svg>