<svg width="200" height="41" viewBox="0 0 200 41" xmlns="http://www.w3.org/2000/svg"><title>cu-logo-white</title><g style="mix-blend-mode:lighten" fill="#FFFFFE" fill-rule="evenodd"><path d="M17.78 18.418c.5-.75 1.168-2.673 1.377-4.513-.21-.416-.877-.416-1.085-.04-.462 1.086-2.09 4.221-6.018 4.221S4.532 14.91 4.532 9.308c0-5.68 3.551-8.106 7.146-8.106 3.759 0 5.18 1.966 5.809 4.263.292.334.918.25 1.084-.08-.25-1.674-.376-3.721-.376-4.598-.333 0-3.007-.797-5.724-.797-3.218 0-6.102.837-8.147 2.426C2.235 4.046.813 6.552.813 9.937c0 3.343 1.713 5.891 3.97 7.437 2.13 1.463 4.72 1.924 7.354 1.924 2.884 0 4.43-.67 5.642-.88zm20.334.42c.46-.796 1.045-2.884 1.255-4.64-.126-.376-.795-.459-1.088-.166-1.21 3.342-2.757 3.468-5.432 3.468-2.381 0-3.134-.169-3.51-.584-.375-.46-.46-1.756-.46-3.011v-3.006c0-.837 0-.962.795-.962h1.964c2.215 0 2.423.334 2.757 1.587l.21.795c.21.292.835.25 1.044-.083-.084-1.212-.084-1.965-.084-3.01 0-.962 0-1.714.084-2.924-.209-.336-.835-.377-1.044-.084l-.21.796c-.334 1.25-.542 1.585-2.757 1.585h-1.964c-.795 0-.795-.083-.795-.833V3.125c0-1.295.042-1.337 1.506-1.337h1.839c1 0 2.882 0 3.55 1.002.252.378.501.92.753 2.009.249.292.92.248 1.086-.085-.209-1.8-.417-3.761-.46-4.264-.377.084-2.047.127-3.885.127h-5.935c-.668 0-1.336 0-2.005-.043-.626 0-1.254-.04-1.88-.084-.335.168-.376.878-.083 1.046l.583.125c1.59.333 1.756.459 1.756 3.342v9.36c0 2.884-.167 3.134-1.964 3.345l-1.13.124c-.292.21-.25.92.086 1.045 2.006-.083 3.3-.126 4.637-.126h3.678c1.129 0 2.257 0 3.427.043 1.168 0 2.382.041 3.676.083zm21.92-9.36c0 5.096-2.466 8.231-7.481 8.231-3.177 0-3.593-1.336-3.593-4.01V3.753c0-.923 0-1.465.25-1.631.335-.293 1.127-.459 2.507-.459 4.724 0 8.316 2.674 8.316 7.815zm3.718.083c0-3.846-1.964-6.896-5.768-8.189-1.963-.67-4.01-.922-6.35-.922-3.386 0-5.724.084-8.065.252-.377.125-.418.919-.041 1.045l1.253.166c.962.126 1.002.836 1.002 3.552v8.858c0 2.884-.166 3.051-1.963 3.345l-.794.124c-.293.21-.25.92.084 1.045a81.24 81.24 0 0 1 4.26-.126c.63 0 1.423.043 2.258.084.879.083 1.84.126 2.758.126 2.088 0 4.43-.335 6.31-1.295 3.344-1.714 5.056-4.766 5.056-8.065zM74.497 10.9h-2.883c-.92 0-1.003-.085-.543-1.212l1.504-3.721c.375-.875.544-1.252.668-1.42h.083c.125.208.293.545.628 1.505l1.295 3.55c.459 1.213.335 1.298-.752 1.298zm9.15 6.893l-.669-.124c-1.502-.294-1.88-.837-2.38-2.215l-3.761-9.988c-.96-2.55-1.629-4.722-1.798-5.138-.083-.253-.333-.337-.668-.21-.208.5-1.002 1.294-1.755 1.587-.082.796-.376 1.796-1.087 3.51l-4.01 9.612c-.837 2.005-1.295 2.465-2.591 2.758l-.963.208c-.292.21-.292.877.084 1.045.755-.042 1.756-.126 2.927-.126 1.17 0 2.255.043 3.3.126.418-.083.46-.835.127-1.045l-1.13-.208c-.794-.167-.919-.335-.458-1.672l.961-2.675c.333-.962.459-1.001 1.42-1.001h3.97c.96 0 1.086.039 1.42 1.001l1.003 2.717c.503 1.295.543 1.546-.544 1.714l-.836.124c-.375.168-.332.92.085 1.045a47.623 47.623 0 0 1 3.76-.126c1.422 0 2.382.043 3.47.126.415-.083.5-.835.123-1.045zm10.814-8.23c-2.05 0-2.09 0-2.09-1.046V2.831c0-1.084.292-1.167 1.838-1.167 2.924 0 4.388 1.836 4.388 3.925 0 2.885-1.422 3.972-4.136 3.972zm3.827 1.06l.089-.01a.984.984 0 0 1-.031-.05c-.125-.209-.168-.458 0-.625 1.628-.586 3.717-1.796 3.717-4.472 0-4.386-4.218-5.015-8.105-5.015-2.299 0-4.637.084-6.937.252-.417.125-.333 1.002 0 1.045l1.171.166c.96.126 1.003.836 1.003 3.552v8.858c0 2.884-.169 2.968-1.965 3.345l-.626.124c-.376.168-.335.92.084 1.045a70.676 70.676 0 0 1 4.093-.126c1.297 0 2.675.043 4.43.126.335-.126.377-.835.084-1.045l-.961-.124c-1.797-.25-1.963-.461-1.963-3.345v-2.965c0-.586.083-.669 1.17-.669.448 0 .857.123 1.203.323l.07-.006c12.71 16.464 23.847 12.192 23.847 12.192 1.66-.707.707-1.047.707-1.047-10.96 3.876-20.313-10.327-21.08-11.529zm28.704-9.126c.29-.21.207-.878-.21-1.046-.668.084-1.63.127-2.966.127-1.128 0-2.215-.043-3.428-.127-.333.252-.459.795-.084 1.046l.67.125c1.253.25 1.295.542 1.004 1.42-.418 1.21-1.59 4.094-2.467 6.017-.793 1.756-1.504 3.51-2.339 5.265-.626-1.378-1.338-2.923-2.382-5.306l-2.048-4.638c-.918-2.05-.918-2.591.168-2.758l.877-.125c.376-.21.335-.878 0-1.046a61.761 61.761 0 0 1-4.054.127c-1.295 0-2.675-.043-3.76-.127-.334.209-.292.795-.04 1.046l1.377.334c1.003.25 1.171.46 2.423 3.217l4.722 10.488c.544 1.17 1.004 2.507 1.379 3.595a.81.81 0 0 0 .502.168c.21 0 .376-.043.501-.168a99.119 99.119 0 0 1 2.967-7.103l3.176-6.813c1.337-2.84 1.59-3.216 2.84-3.467l1.172-.251zm9.934 12.827v-9.36c0-2.883.168-3.05 1.963-3.342l.794-.125c.292-.21.25-.92-.083-1.046a80.78 80.78 0 0 1-4.263.127c-1.339 0-2.633-.043-4.263-.127-.332.127-.375.836-.082 1.046l.795.125c1.797.292 1.962.459 1.962 3.342v9.36c0 2.884-.165 3.051-1.962 3.345l-.795.124c-.293.21-.25.92.082 1.045a81.314 81.314 0 0 1 4.263-.126c1.297 0 2.673.043 4.263.126.334-.126.375-.835.083-1.045l-.794-.124c-1.795-.294-1.963-.461-1.963-3.345zm22.68 4.514c.462-.795 1.047-2.883 1.254-4.638-.123-.377-.792-.46-1.085-.167-1.213 3.342-2.759 3.468-5.307 3.468-2.173 0-2.842-.293-3.217-.669-.377-.417-.46-1.589-.46-2.883V4.963c0-2.883.209-2.924 1.964-3.342l.543-.125c.294-.21.252-.92-.084-1.046a65.29 65.29 0 0 1-4.012.127c-1.337 0-2.631-.043-4.262-.127-.332.127-.375.836-.083 1.046l.794.125c1.798.292 1.963.459 1.963 3.342v9.36c0 2.884-.165 3.051-1.963 3.345l-.794.124c-.292.21-.249.92.083 1.045a81.334 81.334 0 0 1 4.262-.126h3.428c1.086 0 2.172 0 3.3.043 1.171 0 2.382.041 3.677.083zm19.27 0c.459-.795 1.045-2.883 1.252-4.638-.124-.377-.793-.46-1.085-.167-1.213 3.342-2.758 3.468-5.31 3.468-2.17 0-2.84-.293-3.214-.669-.377-.417-.46-1.589-.46-2.883V4.963c0-2.883.209-2.924 1.963-3.342l.545-.125c.29-.21.25-.92-.086-1.046a65.32 65.32 0 0 1-4.011.127c-1.338 0-2.633-.043-4.263-.127-.332.127-.376.836-.081 1.046l.793.125c1.796.292 1.962.459 1.962 3.342v9.36c0 2.884-.166 3.051-1.962 3.345l-.793.124c-.295.21-.25.92.081 1.045a81.346 81.346 0 0 1 4.263-.126h3.427c1.085 0 2.172 0 3.302.043 1.17 0 2.38.041 3.677.083zm20.985-4.638c-.125-.377-.794-.46-1.086-.167-1.212 3.342-2.76 3.468-5.43 3.468-2.384 0-3.136-.169-3.51-.584-.378-.46-.46-1.756-.46-3.011v-3.006c0-.837 0-.962.79-.962h1.965c2.215 0 2.425.334 2.759 1.587l.208.795c.21.292.834.25 1.044-.083-.082-1.212-.082-1.965-.082-3.01 0-.962 0-1.714.082-2.924-.21-.336-.833-.377-1.044-.084l-.208.796c-.334 1.25-.544 1.585-2.759 1.585h-1.964c-.79 0-.79-.083-.79-.833V3.125c0-1.295.037-1.337 1.501-1.337h1.84c1.003 0 2.883 0 3.552 1.002.25.378.5.92.75 2.009.252.292.92.248 1.086-.085-.207-1.8-.416-3.761-.46-4.264-.374.084-2.045.127-3.885.127h-5.933c-.669 0-1.338 0-2.006-.043-.626 0-1.252-.04-1.881-.084-.334.168-.375.878-.082 1.046l.584.125c1.587.333 1.756.459 1.756 3.342v9.36c0 2.884-.169 3.134-1.964 3.345l-1.13.124c-.29.21-.25.92.085 1.045 2.006-.083 3.3-.126 4.638-.126h3.676c1.129 0 2.257 0 3.427.043 1.17 0 2.382.041 3.677.083.46-.795 1.045-2.883 1.254-4.638zM180.883 30.095a22.6 22.6 0 0 1-1.368.045c-.457 0-.884-.016-1.415-.045-.115.06-.132.263-.029.367l.266.03c.352.043.618.146.618.235 0 .177-.545 1.178-.956 1.943a54.778 54.778 0 0 1-1.386 2.488c-.573-1.016-1.117-2.178-1.662-3.268-.073-.147-.456-.986-.456-1.133 0-.119.104-.177.618-.265l.192-.03c.086-.089.086-.322-.045-.367-.368.03-.898.045-1.574.045-.707 0-1.236-.016-1.707-.045-.104.06-.118.263-.03.367l.412.073c.441.074.663.149 1.162 1.118l1.737 3.387c.428.825.47 1.016.47 1.825v.751c0 1.574-.03 1.781-.882 1.87l-.456.044c-.088.088-.059.323.03.367.779-.03 1.309-.044 1.928-.044.589 0 1.09.014 2 .044.09-.044.12-.28.031-.367l-.559-.044c-.796-.059-.883-.296-.883-1.87v-.764c0-1.135.03-1.282.691-2.385l.928-1.605c.736-1.265 1.176-2.207 1.942-2.327l.412-.073c.103-.089.088-.293-.029-.367zm-17.897-.325c-.03-.058-.191-.073-.265-.044-.222.384-.354.413-1.15.413h-5.96c-.676 0-1.163.015-1.25-.456-.044-.043-.236-.03-.28 0-.104.589-.323 1.53-.56 2.191.06.12.266.195.382.104.164-.367.31-.69.664-1.015.368-.339 1.177-.368 1.81-.368h.808c.443 0 .443.014.443.47v6.58c0 1.546-.074 1.765-.912 1.84l-.531.044c-.117.075-.087.324 0 .369.943-.03 1.457-.045 2.047-.045.589 0 1.088.015 1.927.045.089-.045.117-.31.03-.369l-.471-.043c-.854-.089-.884-.295-.884-1.84v-6.55c0-.487-.013-.501.427-.501h1.046c.808 0 1.369.118 1.71.368.218.16.32.707.364 1.075.075.089.325.089.385-.03-.045-.441.057-1.635.22-2.238zm-19.688 7.846v-5.24c0-1.56.029-1.81.897-1.885l.368-.028c.089-.06.06-.324-.03-.368-.735.029-1.235.044-1.824.044-.617 0-1.119-.015-1.854-.044-.088.044-.119.309-.03.368l.367.028c.87.076.9.325.9 1.885v5.24c0 1.56-.03 1.767-.9 1.87l-.367.043c-.089.09-.058.324.03.368a42.95 42.95 0 0 1 1.854-.044c.589 0 1.089.015 1.823.044.091-.044.12-.307.031-.368l-.368-.043c-.868-.103-.897-.31-.897-1.87zm-15.7-5.622c0-.677.309-1.634 1.753-1.634 1.412 0 1.81.957 2 1.663.074.089.31.046.37-.045 0-.617-.134-1.442-.265-1.795-.12 0-.324-.044-.516-.088a5.057 5.057 0 0 0-1.37-.192c-1.911 0-3.001 1.133-3.001 2.533 0 1.207.852 2.046 1.588 2.53l1.4.914c1.074.69 1.206 1.412 1.206 2.059 0 .884-.605 1.694-1.84 1.694-1.707 0-2.31-1.442-2.532-2.192-.06-.09-.28-.06-.353.043.03.691.22 1.736.397 2.06.28.16 1.06.546 2.297.546 1.914 0 3.134-1.106 3.134-2.724 0-1.4-.91-2.253-1.838-2.827l-1.178-.735c-.545-.353-1.252-.958-1.252-1.81zm-10.514 7.948c.074-.06.059-.178-.015-.207a1.755 1.755 0 0 1-1.014-.412c-1.002-.839-1.781-2.016-2.96-3.915-.073-.117-.147-.264-.073-.353.736-.294 1.84-1.06 1.84-2.457 0-1.031-.515-1.694-1.222-2.061-.677-.368-1.545-.442-2.457-.442-1.444 0-2.458.044-3.282.118-.119.059-.119.294-.015.367l.47.059c.603.074.648.324.648 1.722v5.284c0 1.546-.03 1.738-.883 1.84l-.368.044c-.089.105-.058.324.03.369a36.103 36.103 0 0 1 3.592 0c.088-.045.116-.294.03-.369l-.31-.043c-.853-.117-.884-.295-.884-1.84V35.79c0-.307.03-.323.691-.323.589 0 .825.146 1.044.47.458.663 1.062 1.68 1.444 2.225 1.045 1.485 1.795 1.854 3.046 1.854.28 0 .517-.03.648-.074zm-4.295-5.3c-.428.324-.99.385-1.519.385-.75 0-.97-.031-1.016-.074-.043-.06-.043-.223-.043-.487v-3.444c0-.413.043-.472.957-.472 1.632 0 2.355 1.103 2.355 2.27 0 .998-.339 1.514-.734 1.822zm-14.656 5.256c.191-.398.559-1.531.662-2.047-.058-.132-.264-.175-.368-.103-.382.766-.781 1.282-1.045 1.429-.324.161-.75.22-1.884.22-1.294 0-1.604-.163-1.78-.34-.237-.25-.28-.75-.28-1.53v-2.075c0-.383.043-.397.485-.397h.854c.574 0 .927.014 1.134.075.294.072.396.293.455.558l.133.575c.075.087.325.087.382-.016 0-.325-.057-.882-.057-1.413 0-.558.057-1.134.057-1.485-.057-.103-.307-.103-.382-.016l-.118.603c-.074.37-.176.456-.353.516-.177.058-.633.087-1.251.087h-.854c-.442 0-.485 0-.485-.41v-2.944c0-.56 0-.59.441-.59h1.06c.648 0 1.119.014 1.427.09.766.19.898.706 1.12 1.395.072.09.309.061.367-.027-.058-.648-.147-1.708-.236-1.958-.177.044-1.043.044-1.986.044h-2.768a35.5 35.5 0 0 1-1.737-.044c-.089.044-.117.308-.029.368l.237.028c.867.104.897.326.897 1.856v5.298c0 1.546-.075 1.765-.913 1.84l-.487.044c-.088.09-.06.324.03.369.869-.03 1.37-.045 2.002-.045h1.326c1.31 0 2.619.015 3.944.045zm-16.312-9.435c.075-.075.075-.308-.029-.368-.485.03-.941.044-1.427.044-.56 0-1.118-.015-1.531-.044-.104.06-.133.28-.03.368l.265.028c.517.06.662.177.662.281 0 .104-.014.264-.131.574-.25.632-.928 2.296-1.37 3.297-.324.78-.957 2.295-1.413 3.268a153.228 153.228 0 0 1-2.09-5.08c-.456-1.118-.706-1.913-.736-2.059.015-.117.133-.207.692-.28l.22-.029c.103-.089.074-.308-.028-.368-.619.03-1.133.044-1.781.044-.634 0-1.104-.015-1.532-.044-.118.073-.132.28-.029.368l.265.028c.633.074.854.385 1.193 1.208l2.59 6.39c.265.616.516 1.337.676 1.955.074.03.148.046.222.046.059 0 .117-.016.162-.046.25-.78.942-2.486 1.53-3.84l.795-1.811c.663-1.502 1.237-2.694 1.649-3.385.191-.308.412-.486.766-.517l.44-.028zM61.24 37.616v-5.24c0-1.56.03-1.81.899-1.885l.367-.028c.09-.06.06-.324-.03-.368-.734.029-1.236.044-1.824.044-.619 0-1.119-.015-1.855-.044-.088.044-.118.309-.029.368l.368.028c.869.076.897.325.897 1.885v5.24c0 1.56-.028 1.767-.897 1.87l-.368.043c-.09.09-.059.324.03.368.735-.03 1.235-.044 1.854-.044.588 0 1.09.015 1.825.044.09-.044.119-.307.03-.368l-.368-.043c-.87-.103-.899-.31-.899-1.87zm-11.493-7.153c.088-.09.088-.294-.03-.368-.5.03-.883.045-1.516.045-.56 0-1.06-.016-1.736-.045-.119.045-.133.278-.03.368l.25.028c.588.076.825.164.913.296.278.441.294 2.354.294 3.047v3.15c0 .308 0 .543-.059.618h-.03c-.692-.708-1.427-1.517-2.428-2.664l-1.427-1.605c-.472-.545-2.224-2.488-2.518-3.238a4.72 4.72 0 0 1-.677.045c-.265 0-1.045 0-1.664-.045-.117.06-.117.278-.028.368l.25.028c.353.046.707.148.912.354.31.34.325.648.325 1.06v4.255c0 .704.014 2.5-.192 3.031-.073.162-.31.265-.648.295l-.398.043c-.087.09-.073.295.03.369.515-.03.913-.045 1.53-.045.545 0 1.06.015 1.723.045.103-.074.117-.25.03-.369l-.456-.043c-.368-.03-.649-.117-.752-.28-.235-.441-.265-2.354-.265-3.046v-3.211c0-.441.016-.778.074-.955h.03c.31.324 1.311 1.531 1.707 1.987l3.415 3.886c1.28 1.457 1.708 1.971 1.884 2.222.161 0 .25-.073.28-.16-.044-.384-.044-2.136-.044-2.578v-3.517c0-.678-.03-2.504.22-3.032.06-.118.353-.235.825-.31l.206-.029zm-19.711-.015c.073-.09.088-.28-.03-.353-.53.03-.927.044-1.545.044-.574 0-1.119-.015-1.679-.044-.088.06-.118.25-.03.353l.37.03c.367.029.633.13.735.31.251.441.28 2.133.28 3.046v1.692c0 2.237-.809 3.915-2.944 3.915-2.253 0-2.987-1.56-2.987-3.93v-3.178c0-1.531.03-1.782.882-1.854l.353-.03c.088-.06.06-.31-.029-.354-.722.03-1.206.044-1.81.044-.589 0-1.09-.015-1.826-.044-.088.044-.117.293-.028.353l.367.03c.854.073.883.324.883 1.855v3.472c0 1.753.368 2.827 1.148 3.475.72.617 1.737.81 2.753.81 1.088 0 2.178-.385 2.81-1.076.825-.882 1.032-2.238 1.032-3.517v-1.663c0-.824-.015-2.518.205-3.004.075-.192.369-.323.736-.351l.354-.03zM187.48 38.434h.297c.278 0 .45-.14.45-.35 0-.253-.202-.347-.466-.347-.142 0-.236.014-.28.025v.672zm-.252-.847c.133-.025.333-.042.516-.042.28 0 .461.053.584.159a.47.47 0 0 1 .152.352c0 .25-.172.416-.372.478v.005c.144.053.236.19.283.366.07.264.114.45.156.528h-.261c-.031-.053-.075-.208-.13-.444-.062-.256-.168-.358-.401-.366h-.274v.81h-.253v-1.846zm.605-.45c-.748 0-1.356.609-1.356 1.356 0 .748.608 1.356 1.356 1.356.747 0 1.355-.608 1.355-1.356 0-.747-.608-1.356-1.355-1.356zm0 3.057c-.938 0-1.7-.763-1.7-1.701 0-.938.762-1.7 1.7-1.7.937 0 1.7.762 1.7 1.7s-.763 1.7-1.7 1.7z"/></g></svg>