<svg width="199" height="41" viewBox="0 0 199 41" xmlns="http://www.w3.org/2000/svg"><title>cu-logo-blue</title><g fill="#003A63" fill-rule="evenodd"><path d="M17.369 19.296c.5-.748 1.165-2.665 1.374-4.5-.21-.414-.875-.414-1.083-.039-.46 1.083-2.082 4.209-6 4.209-3.916 0-7.5-3.168-7.5-8.752 0-5.665 3.542-8.083 7.126-8.083 3.748 0 5.165 1.96 5.79 4.251.293.333.916.25 1.082-.081-.249-1.668-.375-3.71-.375-4.584-.331 0-2.998-.794-5.706-.794-3.21 0-6.084.834-8.124 2.419-2.082 1.625-3.5 4.123-3.5 7.498 0 3.334 1.708 5.874 3.957 7.416 2.125 1.458 4.708 1.918 7.333 1.918 2.876 0 4.417-.668 5.626-.878zm20.275.418c.458-.792 1.041-2.874 1.25-4.624-.125-.376-.792-.459-1.084-.167-1.207 3.333-2.75 3.458-5.416 3.458-2.374 0-3.125-.168-3.499-.582-.375-.46-.459-1.75-.459-3.002V11.8c0-.835 0-.96.793-.96h1.957c2.209 0 2.417.333 2.75 1.583l.208.793c.21.29.833.248 1.042-.084-.084-1.207-.084-1.959-.084-3 0-.96 0-1.709.084-2.916-.209-.335-.833-.376-1.042-.083l-.209.793c-.332 1.246-.54 1.58-2.749 1.58H29.23c-.793 0-.793-.082-.793-.83V4.048c0-1.29.042-1.333 1.5-1.333h1.834c.998 0 2.874 0 3.54 1 .251.377.5.918.751 2.002.248.292.916.248 1.083-.085-.208-1.793-.416-3.75-.46-4.25-.375.083-2.04.126-3.873.126h-5.916c-.666 0-1.333 0-2-.043-.624 0-1.25-.04-1.874-.083-.335.167-.375.875-.083 1.042l.582.125c1.584.332 1.75.457 1.75 3.333v9.332c0 2.875-.166 3.125-1.958 3.334l-1.127.125c-.29.209-.248.916.086 1.041 2-.083 3.291-.125 4.624-.125h3.667c1.125 0 2.25 0 3.416.042 1.165 0 2.375.041 3.666.083zm21.854-9.33c0 5.08-2.458 8.206-7.459 8.206-3.167 0-3.582-1.333-3.582-4V4.676c0-.92 0-1.46.249-1.626.334-.292 1.124-.457 2.5-.457 4.71 0 8.292 2.666 8.292 7.791zm3.707.082c0-3.835-1.958-6.876-5.75-8.165-1.957-.668-4-.92-6.331-.92-3.377 0-5.708.084-8.042.252-.376.124-.417.916-.041 1.042l1.25.165c.96.126.999.834.999 3.542v8.832c0 2.875-.166 3.042-1.957 3.334l-.792.125c-.292.209-.25.916.083 1.041a81 81 0 0 1 4.248-.125c.627 0 1.419.042 2.252.083a29.8 29.8 0 0 0 2.749.126c2.082 0 4.416-.334 6.29-1.291 3.335-1.71 5.042-4.752 5.042-8.041zM73.92 11.8h-2.874c-.918 0-1-.085-.543-1.209l1.5-3.71c.374-.872.542-1.249.666-1.416h.083c.125.207.292.544.626 1.5l1.291 3.54c.458 1.21.335 1.295-.749 1.295zm9.122 6.873l-.666-.125c-1.498-.292-1.875-.834-2.373-2.208l-3.75-9.958c-.958-2.543-1.624-4.708-1.793-5.123-.083-.252-.332-.336-.666-.21-.207.5-1 1.29-1.75 1.583-.082.794-.374 1.79-1.083 3.5l-3.998 9.583c-.835 1.999-1.292 2.458-2.584 2.75l-.96.208c-.291.209-.291.873.083 1.041.753-.042 1.751-.125 2.918-.125 1.167 0 2.25.042 3.292.125.416-.083.458-.832.125-1.041l-1.125-.209c-.792-.165-.917-.333-.457-1.666l.958-2.667c.332-.96.457-.999 1.416-.999h3.957c.958 0 1.084.04 1.417.999l1 2.709c.501 1.29.54 1.54-.543 1.708l-.833.125c-.375.166-.332.916.084 1.041a47.482 47.482 0 0 1 3.75-.125c1.417 0 2.374.042 3.458.125.414-.083.499-.832.123-1.041zm10.782-8.207c-2.044 0-2.084 0-2.084-1.042V3.755c0-1.08.292-1.163 1.833-1.163 2.916 0 4.375 1.83 4.375 3.913 0 2.876-1.417 3.96-4.124 3.96zm3.816 1.058l.089-.01a.98.98 0 0 1-.031-.05c-.125-.209-.167-.457 0-.624 1.623-.584 3.706-1.79 3.706-4.458 0-4.373-4.205-5-8.081-5a95.33 95.33 0 0 0-6.917.25c-.415.125-.332 1 0 1.043l1.168.165c.957.126 1 .834 1 3.542v8.832c0 2.875-.168 2.959-1.959 3.334l-.624.125c-.376.166-.334.916.083 1.041a70.467 70.467 0 0 1 4.081-.125c1.294 0 2.668.042 4.417.125.334-.125.376-.832.084-1.041l-.958-.125c-1.792-.25-1.958-.46-1.958-3.334v-2.956c0-.585.084-.667 1.167-.667.447 0 .854.121 1.2.322l.07-.007c12.672 16.415 23.776 12.156 23.776 12.156 1.655-.705.705-1.044.705-1.044-10.927 3.865-20.253-10.296-21.018-11.494zm28.619-9.1c.29-.21.207-.875-.209-1.042-.666.083-1.626.126-2.958.126-1.124 0-2.208-.043-3.417-.126-.332.25-.458.792-.084 1.042l.669.125c1.248.249 1.29.54 1 1.415-.417 1.208-1.585 4.083-2.46 6-.79 1.751-1.5 3.5-2.331 5.25-.625-1.375-1.335-2.915-2.376-5.29l-2.042-4.625c-.915-2.043-.915-2.584.168-2.75l.874-.125c.375-.21.334-.875 0-1.042a61.578 61.578 0 0 1-4.042.126c-1.291 0-2.666-.043-3.75-.126-.331.208-.29.792-.039 1.042l1.373.333c1 .25 1.168.458 2.416 3.208l4.708 10.457c.543 1.166 1.001 2.5 1.375 3.584a.807.807 0 0 0 .5.168c.21 0 .375-.044.5-.168a98.826 98.826 0 0 1 2.959-7.082l3.166-6.792c1.333-2.832 1.585-3.207 2.832-3.457l1.168-.25zm9.905 12.79V5.882c0-2.876.167-3.042 1.957-3.333l.792-.125c.29-.21.25-.916-.084-1.042a80.54 80.54 0 0 1-4.25.126c-1.335 0-2.624-.043-4.25-.126-.331.126-.373.833-.082 1.042l.793.125c1.791.291 1.956.457 1.956 3.333v9.332c0 2.875-.165 3.042-1.956 3.334l-.793.125c-.291.209-.249.916.082 1.041a81.073 81.073 0 0 1 4.25-.125c1.294 0 2.665.042 4.25.125.333-.125.374-.832.084-1.041l-.792-.125c-1.79-.292-1.957-.46-1.957-3.334zm22.614 4.5c.459-.792 1.043-2.874 1.25-4.624-.124-.376-.791-.459-1.082-.167-1.21 3.333-2.751 3.458-5.293 3.458-2.166 0-2.832-.292-3.207-.667-.376-.415-.457-1.584-.457-2.875V5.882c0-2.876.207-2.916 1.957-3.333l.541-.125c.294-.21.251-.916-.084-1.042a65.098 65.098 0 0 1-4 .126c-1.333 0-2.623-.043-4.249-.126-.33.126-.374.833-.083 1.042l.792.125c1.793.291 1.958.457 1.958 3.333v9.332c0 2.875-.165 3.042-1.958 3.334l-.792.125c-.291.209-.248.916.083 1.041a81.093 81.093 0 0 1 4.25-.125h3.417c1.083 0 2.166 0 3.291.042 1.167 0 2.374.041 3.666.083zm19.212 0c.457-.792 1.041-2.874 1.248-4.624-.123-.376-.791-.459-1.082-.167-1.21 3.333-2.75 3.458-5.293 3.458-2.166 0-2.832-.292-3.206-.667-.376-.415-.458-1.584-.458-2.875V5.882c0-2.876.208-2.916 1.957-3.333l.543-.125c.289-.21.249-.916-.085-1.042a65.127 65.127 0 0 1-4 .126c-1.334 0-2.625-.043-4.25-.126-.33.126-.375.833-.081 1.042l.79.125c1.791.291 1.957.457 1.957 3.333v9.332c0 2.875-.166 3.042-1.957 3.334l-.79.125c-.294.209-.25.916.081 1.041a81.106 81.106 0 0 1 4.25-.125h3.417c1.082 0 2.166 0 3.292.042 1.167 0 2.374.041 3.667.083zm20.923-4.624c-.125-.376-.793-.459-1.084-.167-1.208 3.333-2.75 3.458-5.414 3.458-2.376 0-3.126-.168-3.5-.582-.376-.46-.457-1.75-.457-3.002V11.8c0-.835 0-.96.788-.96h1.958c2.209 0 2.418.333 2.751 1.583l.208.793c.21.29.831.248 1.04-.084-.081-1.207-.081-1.959-.081-3 0-.96 0-1.709.082-2.916-.21-.335-.831-.376-1.041-.083l-.208.793c-.333 1.246-.542 1.58-2.75 1.58h-1.959c-.788 0-.788-.082-.788-.83V4.048c0-1.29.038-1.333 1.497-1.333h1.834c1 0 2.875 0 3.542 1 .249.377.498.918.749 2.002.25.292.917.248 1.082-.085-.206-1.793-.416-3.75-.458-4.25-.374.083-2.04.126-3.875.126h-5.915c-.667 0-1.334 0-2-.043a27.5 27.5 0 0 1-1.875-.083c-.333.167-.374.875-.082 1.042l.582.125c1.583.332 1.75.457 1.75 3.333v9.332c0 2.875-.167 3.125-1.957 3.334l-1.127.125c-.29.209-.25.916.085 1.041 2-.083 3.29-.125 4.624-.125h3.665c1.126 0 2.25 0 3.417.042 1.167 0 2.375.041 3.666.083.458-.792 1.042-2.874 1.25-4.624zM179.99 30.939c-.5.029-.91.044-1.365.044-.455 0-.88-.015-1.41-.044-.115.06-.132.262-.029.366l.265.03c.351.042.617.145.617.234 0 .177-.544 1.174-.953 1.937-.44.852-.926 1.702-1.383 2.48-.571-1.012-1.113-2.17-1.656-3.257-.073-.147-.455-.983-.455-1.13 0-.119.103-.176.615-.264l.192-.03c.086-.089.086-.322-.045-.366-.366.029-.895.044-1.57.044-.704 0-1.232-.015-1.701-.044-.104.06-.118.262-.03.366l.411.072c.44.074.661.149 1.159 1.115l1.731 3.378c.427.822.47 1.012.47 1.818v.75c0 1.569-.03 1.775-.88 1.864l-.455.044c-.088.087-.059.322.03.366.776-.03 1.304-.044 1.922-.044.587 0 1.087.013 1.994.044.09-.044.119-.279.031-.366l-.557-.044c-.794-.059-.88-.295-.88-1.864v-.763c0-1.13.028-1.277.689-2.377l.925-1.6c.733-1.262 1.172-2.201 1.935-2.32l.412-.073c.103-.089.087-.293-.03-.366zm-17.844-.324c-.03-.058-.19-.073-.265-.044-.22.383-.353.412-1.145.412h-5.943c-.675 0-1.16.015-1.248-.455-.043-.043-.235-.03-.278 0-.104.587-.322 1.526-.558 2.185.059.119.264.194.38.103.164-.366.31-.688.662-1.012.367-.338 1.174-.367 1.805-.367h.806c.441 0 .441.014.441.469v6.56c0 1.542-.073 1.76-.91 1.836l-.528.043c-.117.074-.087.323 0 .368.94-.03 1.452-.045 2.04-.045.588 0 1.086.015 1.922.045.088-.045.117-.31.03-.368l-.47-.043c-.851-.089-.88-.294-.88-1.836v-6.53c0-.485-.014-.5.425-.5h1.042c.807 0 1.365.119 1.705.368.217.16.32.705.364 1.072.074.088.324.088.383-.03-.045-.44.057-1.63.22-2.231zm-19.63 7.823v-5.225c0-1.555.029-1.804.894-1.88l.367-.027c.088-.06.06-.323-.03-.368-.733.03-1.231.045-1.818.045-.616 0-1.116-.016-1.849-.045-.088.045-.119.308-.03.368l.366.028c.867.075.897.324.897 1.879v5.225c0 1.555-.03 1.76-.897 1.864l-.366.042c-.089.09-.058.324.03.368.733-.03 1.233-.044 1.849-.044.587 0 1.085.015 1.818.044.09-.044.118-.307.03-.368l-.367-.042c-.865-.103-.894-.309-.894-1.864zm-15.654-5.606c0-.675.308-1.629 1.748-1.629 1.408 0 1.804.954 1.995 1.658.073.088.309.046.367-.045 0-.615-.133-1.438-.264-1.79-.118 0-.322-.043-.514-.088-.38-.116-.91-.19-1.365-.19-1.906 0-2.993 1.13-2.993 2.524 0 1.204.85 2.04 1.584 2.523l1.395.911c1.071.689 1.203 1.409 1.203 2.053 0 .882-.603 1.69-1.835 1.69-1.701 0-2.302-1.439-2.524-2.186-.06-.09-.28-.06-.352.043.03.689.22 1.73.396 2.054.28.16 1.057.544 2.29.544 1.908 0 3.124-1.102 3.124-2.716 0-1.395-.907-2.246-1.832-2.818l-1.175-.734c-.542-.352-1.248-.954-1.248-1.804zm-10.482 7.924c.074-.059.058-.177-.016-.206a1.75 1.75 0 0 1-1.01-.41c-.999-.837-1.777-2.01-2.95-3.904-.075-.116-.148-.263-.075-.352.734-.293 1.836-1.057 1.836-2.45 0-1.028-.515-1.689-1.22-2.055-.674-.367-1.54-.44-2.449-.44-1.44 0-2.451.044-3.273.117-.118.06-.118.293-.015.366l.47.06c.6.073.645.322.645 1.716v5.268c0 1.542-.03 1.733-.88 1.836l-.367.043c-.088.104-.058.323.03.368a35.996 35.996 0 0 1 3.582 0c.087-.045.115-.294.028-.368l-.309-.043c-.85-.116-.88-.294-.88-1.836v-1.85c0-.306.03-.321.689-.321.587 0 .822.145 1.04.47.458.66 1.06 1.673 1.44 2.216 1.042 1.482 1.79 1.85 3.037 1.85.28 0 .515-.031.647-.075zm-4.283-5.284c-.427.323-.986.384-1.514.384-.748 0-.967-.031-1.013-.074-.043-.06-.043-.222-.043-.485v-3.434c0-.412.043-.47.954-.47 1.627 0 2.348 1.1 2.348 2.262 0 .996-.338 1.51-.732 1.817zm-14.612 5.24c.19-.396.557-1.526.66-2.04-.058-.131-.263-.175-.367-.103-.381.764-.78 1.278-1.042 1.424-.324.162-.749.22-1.878.22-1.29 0-1.6-.162-1.776-.338-.236-.25-.278-.748-.278-1.526V36.28c0-.382.042-.396.483-.396h.851c.573 0 .925.014 1.132.075.292.072.394.292.453.556l.132.573c.075.087.324.087.382-.016 0-.324-.058-.88-.058-1.408 0-.557.058-1.13.058-1.48-.058-.104-.307-.104-.382-.017l-.117.601c-.074.37-.176.455-.353.515-.176.057-.63.087-1.247.087h-.851c-.44 0-.483 0-.483-.41v-2.935c0-.558 0-.588.44-.588H94.3c.647 0 1.116.014 1.423.09.764.19.896.704 1.116 1.391.073.09.308.06.367-.027-.059-.646-.147-1.703-.236-1.953-.176.045-1.04.045-1.98.045h-2.76c-.6 0-1.1-.016-1.732-.045-.088.045-.116.308-.028.368l.235.028c.865.103.895.324.895 1.85v5.282c0 1.542-.074 1.76-.91 1.836l-.485.043c-.088.09-.06.323.029.368a53.01 53.01 0 0 1 1.996-.045h1.322c1.306 0 2.611.015 3.933.045zm-16.264-9.406c.074-.075.074-.308-.029-.368-.484.03-.938.045-1.423.045-.559 0-1.115-.015-1.527-.045-.103.06-.132.28-.03.368l.265.028c.515.06.66.176.66.28 0 .103-.014.263-.13.572-.25.63-.926 2.29-1.366 3.287-.323.778-.955 2.289-1.41 3.258a152.775 152.775 0 0 1-2.083-5.064c-.455-1.115-.704-1.908-.733-2.053.014-.117.131-.206.689-.28l.22-.028c.103-.089.073-.308-.029-.368-.616.03-1.13.045-1.775.045-.632 0-1.101-.015-1.528-.045-.117.073-.131.28-.028.368l.264.028c.63.074.85.383 1.19 1.204l2.581 6.37c.264.616.515 1.335.675 1.95.073.03.147.046.22.046a.293.293 0 0 0 .162-.046c.25-.777.94-2.478 1.526-3.829l.792-1.805c.661-1.498 1.234-2.686 1.644-3.375.191-.307.411-.485.764-.515l.44-.028zm-20.52 7.132v-5.225c0-1.555.029-1.804.895-1.88l.366-.027c.09-.06.06-.323-.029-.368-.733.03-1.233.045-1.82.045-.616 0-1.115-.016-1.848-.045-.088.045-.119.308-.03.368l.367.028c.866.075.895.324.895 1.879v5.225c0 1.555-.029 1.76-.895 1.864l-.367.042c-.089.09-.058.324.03.368.733-.03 1.232-.044 1.849-.044.586 0 1.086.015 1.819.044.09-.044.119-.307.03-.368l-.367-.042c-.866-.103-.896-.309-.896-1.864zm-11.46-7.132c.087-.09.087-.294-.03-.368-.498.03-.88.045-1.511.045-.56 0-1.057-.015-1.732-.045-.118.045-.132.278-.03.368l.25.028c.587.075.822.163.91.295.277.44.293 2.347.293 3.038v3.14c0 .308 0 .542-.058.616h-.03c-.69-.705-1.423-1.512-2.421-2.656l-1.423-1.6c-.47-.544-2.217-2.48-2.51-3.229-.192.03-.441.045-.676.045-.263 0-1.041 0-1.658-.045-.117.06-.117.278-.029.368l.25.028c.352.045.705.147.91.352.308.34.323.647.323 1.057v4.242c0 .703.014 2.494-.191 3.023-.073.161-.31.264-.646.294l-.397.043c-.087.09-.073.294.03.368.513-.03.91-.045 1.526-.045.543 0 1.056.015 1.717.045.103-.074.117-.25.03-.368l-.455-.043c-.367-.03-.647-.116-.75-.28-.234-.44-.263-2.347-.263-3.037v-3.2c0-.44.015-.777.073-.953h.03c.308.323 1.307 1.527 1.702 1.981l3.405 3.875c1.276 1.452 1.702 1.965 1.878 2.215.161 0 .25-.073.28-.16-.045-.382-.045-2.129-.045-2.57v-3.506c0-.676-.03-2.497.22-3.023.059-.118.352-.235.822-.31l.205-.028zm-19.653-.015c.073-.09.088-.28-.03-.352-.528.029-.923.044-1.54.044-.572 0-1.116-.015-1.674-.044-.088.06-.118.249-.03.352l.369.03c.366.028.63.13.733.308.25.44.279 2.127.279 3.038v1.686c0 2.23-.807 3.904-2.935 3.904-2.246 0-2.979-1.556-2.979-3.918v-3.17c0-1.525.03-1.775.88-1.848l.352-.03c.088-.06.06-.308-.029-.352-.72.029-1.203.044-1.804.044-.588 0-1.087-.015-1.821-.044-.088.044-.117.292-.029.352l.367.03c.851.073.88.323.88 1.849v3.462c0 1.748.367 2.818 1.145 3.464.718.616 1.732.808 2.744.808 1.086 0 2.172-.383 2.803-1.073.822-.88 1.028-2.23 1.028-3.507v-1.657c0-.821-.015-2.511.204-2.995.075-.192.368-.323.735-.35l.352-.031zM186.568 39.253h.296c.276 0 .448-.139.448-.349 0-.252-.202-.346-.465-.346-.141 0-.235.014-.28.025v.67zm-.252-.844c.132-.025.332-.042.514-.042.28 0 .46.053.582.158.09.08.152.207.152.352 0 .248-.171.414-.371.475v.006c.144.052.235.188.282.365.07.263.114.449.156.526h-.26c-.031-.053-.075-.207-.13-.443-.062-.254-.167-.357-.4-.365h-.273v.808h-.252v-1.84zm.603-.449c-.746 0-1.352.607-1.352 1.352 0 .745.606 1.352 1.352 1.352.745 0 1.351-.607 1.351-1.352 0-.745-.606-1.352-1.351-1.352zm0 3.047c-.935 0-1.696-.76-1.696-1.695s.76-1.695 1.696-1.695c.935 0 1.695.76 1.695 1.695s-.76 1.695-1.695 1.695z"/></g></svg>