<svg width="120" height="109" viewBox="0 0 120 109" xmlns="http://www.w3.org/2000/svg"><title>logo-md-white</title><g fill-rule="nonzero" fill="none"><path d="M0 67.306V64.6h14.706c3.158 0 4.692 1.534 4.692 6.225 0 3.158-.812 4.421-2.165 5.053 1.624.631 2.436 1.804 2.436 5.413 0 5.053-1.534 6.586-4.692 6.586H0v-2.706h3.158V67.306H0zm14.165 7.128c1.444 0 1.895-.541 1.895-3.519 0-2.977-.542-3.428-1.895-3.428h-7.85v6.947h7.85zm.27 10.556c1.444 0 1.895-.541 1.895-3.88 0-3.338-.541-3.879-1.894-3.879h-8.12v7.76h8.12zM24.54 83.547c0 1.263.542 1.804 1.805 1.804h4.421c1.263 0 1.805-.541 1.805-1.804v-1.354h3.067v1.263c0 3.068-1.443 4.421-4.42 4.421h-5.234c-3.067 0-4.42-1.443-4.42-4.42v-9.023c0-3.067 1.443-4.42 4.42-4.42h5.233c3.068 0 4.421 1.443 4.421 4.42v5.233H24.541v3.88zm1.805-11.008c-1.263 0-1.804.542-1.804 1.805v3.067h8.03v-3.067c0-1.263-.542-1.805-1.805-1.805h-4.42zM49.172 72.81h-1.173c-2.166 0-3.61.722-5.233 1.805v10.917h3.518v2.436h-9.383v-2.436h2.797V72.449h-2.797v-2.436h5.865v2.617c1.443-1.444 2.887-2.617 5.503-2.617h.903v2.797z" fill="#FFF"/><g fill="#FFF"><path d="M53.502 83.547c0 1.263.542 1.804 1.805 1.804h4.42c1.264 0 1.805-.541 1.805-1.804v-1.354H64.6v1.263c0 3.068-1.444 4.421-4.421 4.421h-5.233c-3.068 0-4.421-1.443-4.421-4.42v-9.023c0-3.067 1.444-4.42 4.42-4.42h5.234c3.067 0 4.42 1.443 4.42 4.42v5.233H53.503v3.88zm1.805-11.008c-1.263 0-1.805.542-1.805 1.805v3.067h8.03v-3.067c0-1.263-.541-1.805-1.804-1.805h-4.421zM84.088 87.877h-5.684v-2.526c-1.353 1.714-2.887 2.617-6.135 2.617-3.7 0-5.053-1.534-5.053-5.233 0-3.7 1.534-4.872 4.602-5.233 1.624-.18 3.97-.361 6.676-.542v-2.706c0-1.263-.541-1.805-1.804-1.805h-4.06c-1.263 0-1.805.542-1.805 1.805v.631h-3.067v-.631c0-3.068 1.443-4.421 4.42-4.421h4.782c3.068 0 4.421 1.443 4.421 4.42v11.098h2.617l.09 2.526zm-12-7.94c-1.353.181-1.894.542-1.894 2.707 0 2.166.54 2.797 2.436 2.797 2.706 0 4.06-.631 5.864-1.894v-4.421l-6.406.812z"/></g><path d="M104.118 87.877h-8.301v-2.436h2.616V74.344c0-1.353-.54-1.805-2.345-1.805-2.617 0-4.06.632-5.775 1.805V85.44h2.617v2.436h-8.481v-2.436h2.797V72.36h-2.797v-2.436h5.864v2.526c1.624-1.534 2.888-2.616 6.136-2.616 3.608 0 5.052 1.443 5.052 4.51v11.189h2.617v2.345zM115.847 74.344c0-1.263-.542-1.805-1.805-1.805h-3.7c-1.262 0-1.804.542-1.804 2.346 0 1.624.452 1.895 1.715 2.166l5.142.812c2.707.45 3.88 1.443 3.88 4.781 0 3.97-1.444 5.324-4.42 5.324h-5.053c-3.068 0-4.421-1.444-4.421-4.421v-1.173h2.977v1.263c0 1.263.541 1.804 1.804 1.804h4.421c1.264 0 1.805-.541 1.805-2.616 0-1.895-.451-2.166-1.714-2.436l-5.143-.812c-2.707-.451-3.88-1.444-3.88-4.511 0-3.7 1.444-5.053 4.421-5.053h4.421c3.068 0 4.421 1.444 4.421 4.421v.812h-2.977v-.902h-.09z" fill="#FFF"/><path d="M18.947 108.719h-4.06v-1.805c-.993 1.264-2.075 1.895-4.33 1.895-2.617 0-3.61-1.083-3.61-3.699 0-2.617 1.083-3.429 3.248-3.7 1.173-.09 2.797-.27 4.692-.36v-1.895c0-.902-.361-1.263-1.263-1.263h-2.887c-.903 0-1.264.361-1.264 1.263v.451H7.398v-.45c0-2.166.993-3.159 3.158-3.159h3.338c2.166 0 3.158.993 3.158 3.158v7.85h1.895v1.714zm-8.481-5.684c-.993.18-1.353.36-1.353 1.895 0 1.533.36 1.984 1.714 1.984 1.894 0 2.887-.45 4.15-1.353v-3.158l-4.511.632zM22.556 105.561c0 .902.36 1.263 1.263 1.263h1.804v1.895h-1.985c-2.165 0-3.157-.993-3.157-3.158v-7.76h-1.895v-1.804h1.895V92.93h2.075v3.067h3.067v1.805h-3.067v7.76zM34.555 105.561c0 .902.361 1.263 1.264 1.263h1.804v1.895h-1.985c-2.165 0-3.158-.993-3.158-3.158v-7.76h-1.894v-1.804h1.894V92.93h2.075v3.067h3.068v1.805h-3.068v7.76zM52.51 108.719h-5.865v-1.714h1.805v-7.85c0-.902-.361-1.263-1.624-1.263-1.895 0-2.887.451-4.06 1.263v7.85h1.894v1.714h-5.954v-1.714H40.6V93.29h-1.984v-1.715h4.15v6.226c1.173-1.083 2.075-1.895 4.33-1.895 2.527 0 3.52.993 3.52 3.158v7.94h1.894v1.714zM55.577 105.651c0 .903.361 1.263 1.264 1.263h3.157c.903 0 1.264-.36 1.264-1.263v-.902h2.165v.902c0 2.166-.993 3.158-3.158 3.158h-3.7c-2.164 0-3.157-.992-3.157-3.158v-6.406c0-2.165.993-3.157 3.158-3.157h3.7c2.164 0 3.157.992 3.157 3.157v3.7h-7.85v2.706zm1.264-7.85c-.903 0-1.264.362-1.264 1.264v2.165h5.685v-2.165c0-.902-.361-1.263-1.264-1.263h-3.157zM78.765 95.637c0-.903-.361-1.264-1.263-1.264H72.63c-.903 0-1.263.361-1.263 1.264v9.744c0 .902.36 1.263 1.263 1.263h4.872c.902 0 1.263-.361 1.263-1.263v-3.339h-3.97v-1.985h6.225v5.414c0 2.255-1.082 3.248-3.248 3.248H72.45c-2.255 0-3.248-1.083-3.248-3.248v-9.834c0-2.256 1.083-3.249 3.248-3.249h5.323c2.256 0 3.248 1.083 3.248 3.249v1.804h-2.255v-1.804zM94.464 108.719h-4.06v-1.805c-.993 1.264-2.076 1.895-4.331 1.895-2.617 0-3.61-1.083-3.61-3.699 0-2.617 1.084-3.429 3.249-3.7 1.173-.09 2.797-.27 4.692-.36v-1.895c0-.902-.361-1.263-1.264-1.263h-2.887c-.902 0-1.263.361-1.263 1.263v.451h-2.165v-.45c0-2.166.992-3.159 3.158-3.159h3.338c2.165 0 3.158.993 3.158 3.158v7.85h1.894v1.714h.09zm-8.481-5.684c-.993.18-1.354.36-1.354 1.895 0 1.533.361 1.984 1.715 1.984 1.894 0 2.887-.45 4.15-1.353v-3.158l-4.511.632zM98.073 105.561c0 .902.36 1.263 1.263 1.263h1.804v1.895h-1.985c-2.165 0-3.158-.993-3.158-3.158v-7.76h-1.894v-1.804h1.894V92.93h2.076v3.067h3.067v1.805h-3.067v7.76zM104.569 105.651c0 .903.36 1.263 1.263 1.263h3.158c.902 0 1.263-.36 1.263-1.263v-.902h2.165v.902c0 2.166-.992 3.158-3.158 3.158h-3.699c-2.165 0-3.158-.992-3.158-3.158v-6.406c0-2.165.993-3.157 3.158-3.157h3.7c2.165 0 3.157.992 3.157 3.157v3.7h-7.85v2.706zm1.263-7.85c-.902 0-1.263.362-1.263 1.264v2.165h5.684v-2.165c0-.902-.361-1.263-1.263-1.263h-3.158zM96.358 10.015V7.669h-4.51v2.256C81.38 9.835 74.072 8.12 64.78.902l-.18-.09h-2.978v16.06h9.293v2.346h-9.202V57.02h30.134v2.256h4.511V57.02h-1.894V10.015h1.894zm-26.255 4.601h-5.142V5.143c1.804 1.263 3.518 2.255 5.052 3.158l.09 6.315zm0 38.977h-5.052v-32.03h5.052v32.03zm6.316 0h-4.782V29.052h4.782v24.54zm0-27.88h-4.782v-4.15h2.436V14.706h-2.436V9.203c1.624.812 3.248 1.534 4.782 2.075v14.436zm8.03 27.88h-4.782V29.052h4.782v24.54zm0-27.88h-4.782V12.09c1.624.36 3.158.631 4.782.812v12.812zm6.676 27.88h-5.142v-40.6c1.624.09 3.338.18 5.142.27v40.33z" fill="#5AB9F8"/><path d="M25.082 10.015V57.02h-1.895v2.256H27.7V57.02h30.134V19.308H48.54v-2.346h9.293V.812h-2.977l-.09.09c-9.294 7.218-16.602 8.932-27.067 9.113V7.669h-4.512v2.256h1.895v.09zM49.442 8.3a56.175 56.175 0 0 0 5.053-3.158v9.473h-5.053V8.301zm0 13.262h5.053v32.03h-5.053v-32.03zm-6.315 7.489h4.781v24.54h-4.781v-24.54zm0-17.955a34.92 34.92 0 0 0 4.781-2.075v5.504h-2.436V21.383h2.436v4.15h-4.781V11.097zm-8.03 17.955h4.782v24.63h-4.782v-24.63zm0-16.15a44.112 44.112 0 0 0 4.782-.812v13.624h-4.782V12.902zm-6.677.451c1.805-.09 3.429-.09 5.143-.27v40.6H28.42v-40.33z" fill="#FFF"/></g></svg>