<svg width="120" height="109" viewBox="0 0 120 109" xmlns="http://www.w3.org/2000/svg"><title>logo-md-blue</title><g fill-rule="nonzero" fill="none"><path d="M.893 66.843v-2.678H15.47c3.174 0 4.661 1.488 4.661 6.149 0 3.174-.793 4.364-2.182 5.058 1.686.595 2.48 1.785 2.48 5.454 0 5.058-1.488 6.546-4.661 6.546H.893v-2.678h3.173V66.843H.893zm14.181 7.041c1.389 0 1.885-.496 1.885-3.47 0-2.976-.496-3.472-1.885-3.472H7.24v6.942h7.834zm.199 10.513c1.388 0 1.884-.496 1.884-3.868s-.496-3.868-1.884-3.868H7.24v7.736h8.033zM25.29 82.91c0 1.288.495 1.784 1.784 1.784h4.463c1.29 0 1.785-.496 1.785-1.785v-1.29h2.976v1.19c0 2.976-1.389 4.464-4.463 4.464h-5.157c-2.976 0-4.463-1.389-4.463-4.463v-9.025c0-2.975 1.388-4.463 4.463-4.463h5.157c2.975 0 4.463 1.389 4.463 4.463v5.256H25.289v3.868zM27.073 72c-1.289 0-1.785.496-1.785 1.785v3.075h8.033v-3.075c0-1.29-.496-1.785-1.785-1.785h-4.463zM49.785 72.298h-1.19c-2.083 0-3.57.793-5.256 1.785v10.81h3.47v2.38h-9.321v-2.38h2.776V71.9h-2.776v-2.48h5.85V72.1c1.488-1.388 2.877-2.678 5.455-2.678h.893l.1 2.877z" fill="#0B4668"/><g fill="#0B4668"><path d="M54.149 82.91c0 1.288.496 1.784 1.785 1.784h4.463c1.289 0 1.785-.496 1.785-1.785v-1.29h2.975v1.19c0 2.976-1.388 4.464-4.463 4.464h-5.157c-2.975 0-4.463-1.389-4.463-4.463v-9.025c0-2.975 1.389-4.463 4.463-4.463h5.157c2.975 0 4.463 1.389 4.463 4.463v5.256H54.149v3.868zM55.934 72c-1.29 0-1.785.496-1.785 1.785v3.075h8.033v-3.075c0-1.29-.496-1.785-1.785-1.785h-4.463zM84.397 87.273h-5.653v-2.579c-1.389 1.686-2.876 2.678-6.149 2.678-3.67 0-5.058-1.488-5.058-5.256 0-3.769 1.587-4.86 4.562-5.157 1.587-.199 3.967-.397 6.645-.496v-2.678c0-1.29-.496-1.785-1.785-1.785h-3.967c-1.29 0-1.785.496-1.785 1.785v.694H68.23v-.595c0-2.975 1.389-4.463 4.463-4.463h4.661c2.976 0 4.463 1.389 4.463 4.463v11.009h2.678l-.1 2.38zM72.496 79.24c-1.389.198-1.884.595-1.884 2.677 0 2.182.495 2.777 2.38 2.777 2.677 0 4.066-.694 5.752-1.884v-4.364l-6.248.794z"/></g><path d="M104.43 87.273h-8.232v-2.38h2.579V73.785c0-1.29-.496-1.785-2.281-1.785-2.678 0-3.967.595-5.752 1.785v11.108h2.578v2.38h-8.43v-2.38h2.777V71.802h-2.776v-2.38h5.85V71.9c1.588-1.587 2.877-2.678 6.05-2.678 3.57 0 4.96 1.389 4.96 4.463v11.107h2.677v2.48zM116.132 73.686c0-1.29-.496-1.785-1.785-1.785h-3.67c-1.289 0-1.784.496-1.784 2.28 0 1.588.495 1.885 1.686 2.083l5.057.794c2.678.496 3.868 1.487 3.868 4.76 0 3.868-1.388 5.356-4.463 5.356h-5.058c-2.975 0-4.462-1.389-4.462-4.463V81.62h2.975v1.19c0 1.29.496 1.785 1.785 1.785h4.364c1.289 0 1.785-.496 1.785-2.578 0-1.885-.496-2.182-1.686-2.38l-5.058-.794c-2.678-.496-3.868-1.488-3.868-4.463 0-3.67 1.389-5.058 4.463-5.058h4.364c2.975 0 4.462 1.389 4.462 4.463v.794h-2.975v-.893z" fill="#0B4668"/><path d="M19.736 108.1h-3.967v-1.786c-.992 1.19-1.984 1.884-4.364 1.884-2.579 0-3.57-1.09-3.57-3.67 0-2.578 1.09-3.371 3.173-3.668 1.091-.1 2.777-.298 4.661-.397v-1.884c0-.893-.396-1.29-1.289-1.29h-2.876c-.892 0-1.29.397-1.29 1.29v.495H8.232v-.495c0-2.083.992-3.174 3.174-3.174h3.372c2.083 0 3.173.992 3.173 3.174v7.735h1.885v1.785h-.1zm-8.43-5.654c-.992.1-1.389.397-1.389 1.885 0 1.487.397 1.983 1.686 1.983 1.885 0 2.876-.496 4.066-1.29v-3.074l-4.363.496zM23.405 104.926c0 .892.397 1.289 1.29 1.289h1.784v1.884h-1.983c-2.083 0-3.174-.992-3.174-3.173V97.19h-1.884v-1.785h1.884v-3.074h2.083v3.074h2.975v1.785h-2.975v7.736zM35.306 104.926c0 .892.396 1.289 1.289 1.289h1.785v1.884h-1.983c-2.083 0-3.174-.992-3.174-3.173V97.19H31.34v-1.785h1.884v-3.074h2.083v3.074h2.975v1.785h-2.975v7.736zM53.157 108.1h-5.851v-1.687h1.785V98.58c0-.893-.397-1.29-1.587-1.29-1.884 0-2.876.397-4.066 1.29v7.834h1.884v1.686h-5.95v-1.686h1.983V92.727h-1.983v-1.686h4.066v6.15c1.09-1.092 1.983-1.885 4.264-1.885 2.48 0 3.57.992 3.57 3.173v7.835h1.885v1.785zM56.231 105.025c0 .892.397 1.289 1.29 1.289h3.173c.893 0 1.29-.397 1.29-1.29v-.892h2.082v.893c0 2.082-.992 3.173-3.173 3.173h-3.67c-2.083 0-3.173-.991-3.173-3.173v-6.446c0-2.083.991-3.174 3.173-3.174h3.67c2.082 0 3.173.992 3.173 3.174v3.669h-7.735l-.1 2.777zm1.29-7.736c-.893 0-1.29.397-1.29 1.29v2.181h5.653V98.58c0-.893-.396-1.29-1.289-1.29h-3.074zM79.14 95.008c0-.892-.396-1.289-1.289-1.289h-4.86c-.892 0-1.289.397-1.289 1.29v9.718c0 .893.397 1.29 1.29 1.29h4.86c.892 0 1.288-.397 1.288-1.29v-3.272h-3.966V99.47h6.247v5.355c0 2.182-1.09 3.273-3.272 3.273h-5.356c-2.181 0-3.272-1.09-3.272-3.273v-9.818c0-2.182 1.09-3.272 3.272-3.272h5.356c2.182 0 3.272 1.09 3.272 3.272v1.785h-2.28v-1.785zM94.71 108.1h-3.966v-1.786c-.992 1.19-1.984 1.884-4.364 1.884-2.578 0-3.57-1.09-3.57-3.67 0-2.578 1.09-3.371 3.173-3.668 1.091-.1 2.777-.298 4.662-.397v-1.884c0-.893-.397-1.29-1.29-1.29H86.48c-.892 0-1.289.397-1.289 1.29v.495h-2.083v-.495c0-2.083.992-3.174 3.174-3.174h3.372c2.083 0 3.173.992 3.173 3.174v7.735h1.885v1.785zm-8.429-5.654c-.992.1-1.388.397-1.388 1.885 0 1.487.396 1.983 1.686 1.983 1.884 0 2.876-.496 4.066-1.29v-3.074l-4.364.496zM98.48 104.926c0 .892.396 1.289 1.289 1.289h1.785v1.884H99.57c-2.082 0-3.173-.992-3.173-3.173V97.19h-1.885v-1.785h1.885v-3.074h2.082v3.074h2.976v1.785h-2.976v7.736zM104.926 105.025c0 .892.396 1.289 1.289 1.289h3.173c.893 0 1.29-.397 1.29-1.29v-.892h2.082v.893c0 2.082-.991 3.173-3.173 3.173h-3.67c-2.082 0-3.173-.991-3.173-3.173v-6.446c0-2.083.992-3.174 3.173-3.174h3.67c2.082 0 3.173.992 3.173 3.174v3.669h-7.735l-.1 2.777zm1.289-7.736c-.893 0-1.29.397-1.29 1.29v2.181h5.654V98.58c0-.893-.397-1.29-1.29-1.29h-3.074z" fill="#2A89C9"/><path d="M96.1 9.818v-2.28h-4.464v2.28C81.223 9.62 73.983 8.033 64.76.793l-.099-.099h-2.975v15.967h9.223v2.38h-9.223V56.53h29.95v2.182H96.1v-2.182h-1.884V9.917h1.884v-.099zM70.016 14.38h-5.058V5.058c1.785 1.19 3.47 2.28 5.058 3.074v6.248zm0 38.777h-5.058V21.322h5.058v31.835zm6.247 0h-4.76V28.76h4.76v24.397zm0-27.67h-4.76v-4.066h2.38V14.48h-2.38V8.926c1.686.793 3.174 1.487 4.76 1.983v14.579zm8.034 27.67h-4.76V28.76h4.76v24.397zm0-27.67h-4.76V11.902c1.586.397 3.173.595 4.76.793v12.794zm6.545 27.67h-5.058V12.893c1.587.099 3.273.198 5.058.297v39.967z" fill="#094668"/><path d="M26.579 9.818V56.43h-1.885v2.28h4.463V56.53h29.95V19.04h-9.223v-2.38h9.223V.694h-2.975l-.099.1C46.81 7.933 39.57 9.62 29.157 9.817v-2.28h-4.463v2.28h1.885zm24.198-1.686a77.126 77.126 0 0 0 5.058-3.074v9.421h-5.058V8.132zm0 13.19h5.058v31.835h-5.058V21.322zm-6.248 7.438h4.76v24.397h-4.76V28.76zm0-17.752c1.488-.496 3.074-1.19 4.76-1.983v5.454h-2.38v6.942h2.38v4.067h-4.76v-14.48zM36.496 28.76h4.76v24.397h-4.76V28.76zm0-15.967c1.587-.198 3.173-.396 4.76-.793v13.488h-4.76V12.793zm-6.645.397c1.785 0 3.471-.1 5.058-.297v40.264h-5.058V13.19z" fill="#298ACA"/></g></svg>